<svg xmlns="http://www.w3.org/2000/svg" version="1.1" id="Layer_1" x="0" y="0" width="547.2" height="288" viewBox="0 0 547.2 288" enable-background="new 0 0 547.2 288" xml:space="preserve"><style>.s0{stop-color:#007D12;}.s1{stop-color:#929295;}.s2{stop-color:#B9B9B9;}.s3{stop-color:#919191;}.s4{stop-color:#DCDCDC;}</style><linearGradient id="SVGID_1_" gradientUnits="userSpaceOnUse" x1="273.6" y1="289" x2="273.6" y2="1" gradientTransform="matrix(1 0 0 -1 0 289)"><stop offset="0" stop-color="#BA9871"/><stop offset="1" stop-color="#33261D"/></linearGradient><rect fill="url(#SVGID_1_)" width="547.2" height="288"/><g id="layer2" transform="translate(-112.85385,-83.899437)"><g id="path3591" opacity="0.28" enable-background="new    "><path d="M202.72 173.49l26.4 186.13 150.92-32.12v1.76l8.36-1.76c16.39-5.79 31.28-8.58 45.32-9.68l7.04-1.76v-2.2l140.36-32.12 -58.96-169.84L202.72 173.49zM202.72 173.49l26.4 186.13 150.92-32.12v1.76l8.36-1.76c16.39-5.79 31.28-8.58 45.32-9.68l7.04-1.76v-2.2l140.36-32.12 -58.96-169.84L202.72 173.49z"/></g><linearGradient id="path2474_1_" gradientUnits="userSpaceOnUse" x1="314.09" y1="110.79" x2="652.77" y2="190.3" gradientTransform="matrix(1 0 0 -1 -112.854 372.8994)"><stop offset="0" stop-color="#007D12"/><stop offset="0.47" stop-color="#007D12"/><stop offset="0.51" stop-color="#5E7C62"/><stop offset="0.57" stop-color="#007D12"/><stop offset="1" stop-color="#007D12"/></linearGradient><path id="path2474" fill="url(#path2474_1_)" stroke="#000000" stroke-width="0.49" d="M193.35 164.68l26.4 186.13 150.92-32.12v1.76l8.36-1.76c16.39-5.79 31.28-8.58 45.32-9.68l7.04-1.76v-2.2l140.36-32.12 -58.96-169.84L193.35 164.68zM198.05 165.13l25.4 181.83 152.37-32.51 3.18 0.96c13.04-4.43 26.43-8.73 46.84-10.46l5.34-3.2 135.61-31.49 -57.39-164.56L198.05 165.13zM425.74 304.05c-13.27 0.25-28.75 3.27-47.47 10.31 -0.62 0.23-0.93 0.92-0.7 1.53 0.23 0.62 0.92 0.93 1.53 0.7 18.52-6.97 33.73-9.92 46.68-10.16 0.66-0.01 1.18-0.56 1.17-1.22S426.4 304.03 425.74 304.05z"/></g><g id="layer3" transform="translate(-112.85385,-83.899437)"><linearGradient id="path3268_1_" gradientUnits="userSpaceOnUse" x1="325.21" y1="127.06" x2="359.26" y2="130.23" gradientTransform="matrix(1 0 0 -1 -112.854 372.8994)"><stop offset="0" stop-color="#929295"/><stop offset="1" stop-color="#B9B9B9"/></linearGradient><path id="path3268" fill="url(#path3268_1_)" d="M199.68 165.97l26.4 179.48 32.2-11.09 3.17-13.2 -23.23-176.84 -7.92-1.06L199.68 165.97z"/><linearGradient id="path3278_1_" gradientUnits="userSpaceOnUse" x1="646.11" y1="192.61" x2="609.65" y2="180.47" gradientTransform="matrix(1 0 0 -1 -112.854 372.8994)"><stop offset="0" stop-color="#929295"/><stop offset="1" stop-color="#B9B9B9"/></linearGradient><path id="path3278" fill="url(#path3278_1_)" d="M474.71 106.85l7.39-10.03 24.81 8.45 56.35 165.55 -22.03 2.32 -10.03-8.44L474.71 106.85z"/><linearGradient id="path3288_1_" gradientUnits="userSpaceOnUse" x1="338.59" y1="32.18" x2="678.27" y2="105.26" gradientTransform="matrix(1 0 0 -1 -112.854 372.8994)"><stop offset="0" stop-color="#919191"/><stop offset="0.31" stop-color="#919191"/><stop offset="0.51" stop-color="#5C5C5C"/><stop offset="0.7" stop-color="#919191"/><stop offset="1" stop-color="#919191"/></linearGradient><path id="path3288" fill="url(#path3288_1_)" d="M226.2 345.4l38.41-19.84 262.14-56.24 36.94 1.39c-0.09 0.69-106.39 22.67-127.51 27.77 -21.12 5.1-14.78 5.81-14.78 5.81 -14.6 1.92-29.21 5-43.81 10.56 -2.04-3.1-17.75 0.6-23.23 2.11C348.85 318.46 262.09 337.48 226.2 345.4z"/></g><g id="layer4" transform="translate(-112.85385,-83.899437)"><linearGradient id="path3310_1_" gradientUnits="userSpaceOnUse" x1="356.09" y1="130.51" x2="622.05" y2="194.39" gradientTransform="matrix(1 0 0 -1 -112.854 372.8994)"><stop offset="0" stop-color="#DCDCDC"/><stop offset="0.07" stop-color="#E8E8E8"/><stop offset="0.39" stop-color="#E2E2E2"/><stop offset="0.5" stop-color="#BCBCBC"/><stop offset="0.64" stop-color="#DEDEDE"/><stop offset="0.95" stop-color="#DDDDDD"/><stop offset="1" stop-color="#DCDCDC"/></linearGradient><path id="path3310" fill="url(#path3310_1_)" d="M230.29 143.27l25.87 186.35c-3.32 3.87 94.35-19.47 117.6-22.6 23.25-3.12 28.63-0.63 28.63-0.63s7.29-5.68 28.69-12.06c21.4-6.38 112.83-22.75 110.15-24.9L482.1 95.23c-10.23 7.03-66.8 11.21-86.57 15.31 -19.5 4.04-30.17 10.19-37.43 19.06 -2.63-6.48-19.45-7.87-28.47-6.86C320.57 123.75 276.71 136.3 230.29 143.27zM358.92 127.92l-1.08 0.26 43.84 178.71 1.08-0.27L358.92 127.92z"/></g><g id="layer5" transform="translate(-112.85385,-83.899437)"><path id="path3338" opacity="0.34" fill="#929292" enable-background="new    " d="M472.59 107.91c-10.43 2.18-21.85 3.71-33.33 5.21l46.85 157c13.34-2.81 26.4-5.65 37.69-8.6L472.59 107.91zM434.62 113.72c-11.89 1.55-23.72 3.15-34.42 5.47l44.91 159.78c11.44-2.68 24-5.3 36.47-7.91L434.62 113.72zM395.68 120.23c-13.19 3.24-24.33 7.82-31.29 15.1l39.55 157.32c6.97-4.54 20.46-8.65 36.67-12.59L395.68 120.23zM339.56 132.54c-3.58 0.03-7.46 0.33-11.54 0.82l31.56 164.26c16.11-2.96 29.43-4.4 36.15-2.23l-39.14-159.43C352.55 133.44 346.64 132.48 339.56 132.54zM323.44 133.99c-11.67 1.73-24.63 4.74-36.99 7.58l29.23 165.43c13.44-3.01 27.06-6.12 39.36-8.51L323.44 133.99zM281.93 142.6c-14.7 3.35-28.12 6.2-36.85 5.96l25.86 167.34c11.66-1.68 25.74-4.67 40.24-7.9L281.93 142.6z"/></g><g id="layer6" transform="translate(-112.85385,-83.899437)"><path id="path3538" opacity="0.21" fill="#FFFFFF" enable-background="new    " d="M289.95 141.69c10.39-1.93 19.76-16.1 30.84-8.43 10.5 9.12 6.41 24.39 7.29 36.52 -0.98 12.02 0.67 23.88 4.16 35.33 4.22 13.09 6.98 26.63 6.57 40.45 0.14 10.87 4.42 21.65 1.71 32.51 -5.38 2.25-4.83-13.25-7.65-18.07 -3.22-12.29-4.61-24.96-9.1-36.93 -5.63-20.76-14.23-40.95-26.57-58.66C294.44 156.94 291.98 149.38 289.95 141.69zM411.36 115.29c10.21-6.56 22.02 1.48 24.12 12.29 3.15 12.33 0.22 25.32 2.68 37.83 1.74 14.66 3.01 29.49 8.16 43.46 3.96 15.28 8.3 30.49 13.91 45.22 2.39 5.07 0.54 11.13-2.64 3.21 -15.07-20.13-17.74-45.98-25.66-69.2 -3.59-13.3-8.01-26.27-12.69-39.15C417.9 137.39 411.49 126.89 411.36 115.29zM258.8 274.19c-0.97 11.33 1.57 22.61 1.11 33.84 2.36 14.88 19.66 11 29.81 7.83 8.79-0.53 21.18-9.57 9.54-16.64 -9.59-7.48-21.35-11.8-30.02-20.59C266.22 276.33 262.73 274.14 258.8 274.19z"/></g></svg>