<svg xmlns="http://www.w3.org/2000/svg" version="1.1" id="Layer_1" x="0" y="0" width="547.2" height="288" viewBox="0 0 547.2 288" enable-background="new 0 0 547.2 288" xml:space="preserve"><linearGradient id="SVGID_1_" gradientUnits="userSpaceOnUse" x1="273.6" y1="0" x2="273.6" y2="288"><stop offset="0" stop-color="#BA9871"/><stop offset="1" stop-color="#33261D"/></linearGradient><rect fill="url(#SVGID_1_)" width="547.2" height="288"/><path id="svg_117" fill="#FFFFFF" d="M300.82 109.14c2.04-0.29 2.38-2.27 4.18-2.79 2.51-8.5 2.4-17.2 4.19-25.58 1.5-7.03 4.9-11.97 6.98-19.07 2.11-7.22 2.62-14.96 4.19-23.72 1-5.55 3.22-11.08 3.72-16.75 2.78-0.8 3.93-3.02 6.98-2.79 2.75 0.2 7.19 4.9 8.38 7.91 1.52 3.87 1.79 9.95 1.4 15.82 -0.33 4.9-1.69 10.99-3.26 17.21 -1.44 5.74-1.74 11.77-2.79 17.68 -1.27 7.15-2.37 15.77-4.19 23.26 -0.72 2.97-0.98 6.58-1.86 10.7 -1.13 5.24-2.57 9.82 2.79 11.63 6.41-3.05 7.14-11.78 9.77-18.61 1.28-0.89 2.44-1.9 3.72-2.79 3.5-5.61 7.73-10.44 10.7-16.75 2.87-6.1 5.13-12.57 7.44-19.54 2.36-1.14 2.89-2.82 5.58-2.79 6.89 0.08 8.47 10.26 6.98 19.07 -0.78 4.59-3.69 8.61-4.19 12.1 -3.01 2.56-4.24 6.64-6.04 10.24 -5.12 10.21-10.2 22.41-15.82 33.03 0.36 8.05 0.08 15.81-1.4 24.66 -0.41 2.48-1.5 4.66-1.86 6.98 -0.65 4.17 0.03 8.62-0.46 12.56 -0.77 6.1-2.54 14.27-3.72 20.93 -0.82 4.64-1.65 9.45-3.26 13.49 -1.1 2.75-3.44 5.25-4.19 8.37 -0.6 2.52-0.42 5.54-0.93 8.37 -0.45 2.49-0.74 5.01-1.4 7.44 -1.25 4.68-4.05 9.04-4.65 13.49 -0.48 3.59 0.23 7.56 0 11.17 -0.19 2.95-1.06 5.81-1.4 8.84 -0.22 2.03 0.89 5.72-1.86 6.98 -0.87-8.15 0.37-16.12 0.47-23.73 0.06-4.84 2.63-9.72 4.19-14.88 1.23-4.08 1.74-8.04 2.33-12.1 0.97-6.67 2.06-9.76 4.19-14.89 3-7.21 4.5-16.43 6.05-26.52 0.54-3.49 0.94-6.35 1.4-11.16 0.85-9 3.75-17.69 4.19-26.05 0.3-5.8-0.58-11.04-3.26-15.82 -1.78-0.08-0.17 0.38-0.47 1.4 -1.65-0.05-1.87-1.54-1.86-3.26 -3.6-3.07-7.83-5.5-11.16-8.84 -0.97-1.01-1.33 0.23-2.79 0 -0.35-1.98-1.89-2.77-2.79-4.19 -0.24-9.6 4.79-20.39 6.05-32.56 0.18-1.73-0.22-3.43 0-5.12 0.56-4.21 2.21-8.49 2.79-13.02 0.32-2.5-0.44-5.51 0-7.91 0.39-2.12 2.25-3.92 2.79-6.05 0.43-1.69 0.11-3.96 0.47-6.05 0.6-3.45 2.2-9.11 1.86-13.96 -0.37-5.27-3.47-14.08-8.84-13.49 -3.12 0.34-3 3.6-5.12 5.58 -2.34 9.52-2.69 18.6-4.65 27.45 -0.82 3.72-2.82 9.5-4.19 13.49 -0.56 1.63-0.65 3.42-1.39 5.12 -1.29 2.96-3.4 7.62-4.19 12.56 -1.34 8.38-1.37 16.71-5.11 24.66 -0.93 0-1.86 0-2.79 0 2.38 0.83 5.42 1.84 7.91 2.79 2.41 0.93 5.82 1.52 6.51 4.19 -5.81-1.1-10.55-4.39-15.82-4.65 -1.42-1.22-2.6-2.67-4.19-3.72 -3.09-10.84 1.34-27.25-2.33-39.08 1.45-11.75 0.93-28.69 0.93-42.8 0-6.15 0.74-11.78-2.33-16.28 -8.42-5.47-12.4 4.82-13.49 12.56 -1.28 9.14-0.52 19.61-1.39 30.24 -0.22 2.67-1.05 5.33-1.4 7.91 -0.37 2.8-1 5.19-1.4 7.91 -1.94 13.49 2.06 27.38-0.46 39.08 2.99 0.46 11.82-2.32 13.49 1.86 -0.74 1.8-4.03-0.31-6.51-0.46 -3.73-0.23-7.92 0.73-11.16 2.33 -5.32-0.16-6.06-4.71-7.91-9.77 -0.38-1.03-1.37-1.61-1.86-2.79 -0.42-1.02-0.02-2.58-0.47-3.72 -0.88-2.24-1.89-4.47-2.79-6.98 -0.82-2.27-2.38-4.17-3.25-6.51 -0.67-1.8-0.69-4.12-1.4-6.05 -1.6-4.33-4.34-8.56-6.05-13.02 -0.95-2.49-1.7-4.95-2.33-7.44 -1.03-4.07-0.84-9.14-3.25-12.09 -3.53-4.32-4.54-11.83-9.3-13.49 -5.25-0.49-7.4 2.06-6.51 10.7 0.99 9.68 5.15 20.78 6.98 31.17 0.5 2.82 0.73 6.01 1.4 8.84 0.59 2.52 2.59 4.92 3.26 7.44 0.25 0.93-0.27 1.99 0 2.79 2.73 8.07 8.69 18.45 9.77 27.91 0.38 3.33-0.69 6.6-0.93 10.23 -0.44 6.7 0.25 13.47 0.46 19.07 4.8 0.93 5.79-1.96 7.91-3.72 2.37 0.2 4.3-0.04 5.12-1.4 8.23 1.89 15.42 3.52 21.86 7.44 1.76 1.07 4.13 1.83 6.05 3.26 1.63 1.22 2.56 3.27 4.19 4.65 2.8 2.37 6.9 3.32 8.84 6.98 3.33 0.55 5.52 2.23 7.44 4.19 2.69 0.26 5.45 0.44 5.58 3.26 -4.09-0.63-7.2-2.79-10.7-4.65 -1.2-0.64-2.83-0.8-3.72-1.39 -0.92-0.61-1.35-2.03-2.33-2.79 -0.89-0.7-2.34-0.7-3.26-1.4 -0.46-0.35-0.45-1.46-0.93-1.86 -1.08-0.9-2.83-1.68-4.19-2.79 -1.8-1.46-3.53-2.88-5.58-4.19 -3.04-1.93-4.88-3.24-8.84-4.65 -0.97-0.35-1.96-1.12-2.79-1.4 -0.81-0.27-2.31 0.29-3.26 0 -0.83-0.26-1.19-1.26-1.86-1.39 -2.28-0.46-4.64 0.11-6.98-0.47 -2.23 1.5-5.41 2.03-6.98 4.19 -1.22 0.48-2.85 0.56-4.65 0.46 -3.31 4.31-2.09 8.97-4.19 14.89 4.03-0.21 5-5.78 7.91-5.58 -0.06 2.85-2.66 4.92-5.12 6.98 -2.84 2.38-4.98 5.41-9.77 4.65 -2.07-0.33-3.99-2.78-6.51-5.12 -2.07-1.91-3.81-4.19-5.58-6.05 -4.13-4.34-8.64-7.41-11.63-11.63 -1.06-1.49-1.23-3.59-2.33-5.12 -0.28-0.39-0.75 0.2-0.93-0.47 -0.66-2.49-5.03-4.65-7.91-6.51 -4.68-3.02-7.99-4.63-13.49-5.12 -3.93 1.38-7.45 1.84-12.09 1.4 -1.22 0.99-2.19 1.34-2.33 2.79 -0.32 3.33 3.11 3.17 6.51 5.12 3.15 1.8 5.27 5.17 7.44 5.12 1.22 3.44 4.13 5.18 5.58 8.37 3.17 1.15 1.23-2.8 3.72-2.32 1.58 2.07 0.15 3.06-0.46 5.12 1.38 0.17 2.29 0.81 2.79 1.86 1.97 0.42 0.47-2.63 2.33-2.33 -0.54 5.33 2.51 6.01 5.12 8.84 2.09 2.27 2.56 4.88 4.65 6.51 1.35 8.42 4.97 14.57 9.77 19.54 0.99 1.45 2.07 0.1 3.26 0.93 6.25 10.34 12.35 20.84 18.14 31.63 5.43 4.49 9.12 10.73 17.68 12.1 -1.31 2.86-6.56 0.9-8.37 0 0.54 4.72 1.44 9.08 0 14.89 -0.76 3.07-2.42 6.32-2.79 9.77 -0.37 3.42 0.34 6.78 0 9.77 -0.66 5.85-2.64 11.28-5.12 14.89 0.27-4.94 2.41-10.19 2.79-16.28 0.23-3.68-0.39-7.47 0-11.17 0.49-4.62 3.48-8.77 3.72-12.56 0.11-1.62-1.23-8.97-2.33-11.16 -1.65-3.31-5.98-6.58-8.37-9.77 -1.2-1.59-2.11-3.79-3.26-5.58 -3.18-4.97-7.06-10.6-9.3-17.21 -3.97-6.39-11.42-9.48-14.88-16.28 -1.37-2.69-1.2-5.88-2.33-8.84 -0.84-2.22-2.26-4.39-3.72-6.51 -1.41-2.06-3.42-3.13-5.12-5.12 -1.23-1.44-1.53-3.44-2.79-4.65 -1.64-1.58-4.57-2.78-6.98-4.19 -3.35-9.52-13.91-11.83-20.93-17.68 0.33-8.35 8.1-9.26 15.82-10.23 3.8 2.4 8.6 1.43 12.1 2.79 1.98 0.77 4.92 2.84 6.98 4.19 5.41 3.55 7.26 7.77 11.17 13.03 4.78 6.43 11.7 12.19 17.21 18.61 2.08 0.25 3.25 1.4 6.05 0.93 1.13-2.48 3.04-7.43 1.4-9.77 0.71-3.17 2.1-5.66 3.72-7.91 -2.69-6.2-0.92-18.01-0.93-26.98 0.27-1.98-1.25-2.16-2.33-2.79 0.03-1.52 1.32-1.78 0.93-3.72 -2.88-10.06-9.17-22.24-11.63-33.03 -0.78-3.44-0.71-6.94-1.39-10.7 -0.93-5.08-3.82-9.75-5.12-14.89 -1.8-7.1-1.23-14.79-3.26-22.33 3.25-2.32 3.13-8.16 7.91-8.84 2.83-0.4 4.71 1.39 7.91 2.33 1.9 3.61 4.8 6.54 6.51 10.23 3.36 7.27 3.62 16.48 6.51 24.19 0.76 2.03 2.36 3.96 3.26 6.05 1.97 4.59 2.96 9.52 4.65 13.96 1.66 4.34 3.9 8.94 5.58 13.49 0.68 1.84 1.8 4.39 2.79 6.51 1.06 2.24 1.18 5.45 5.12 4.19 4.82-10.73 0.07-23.08 0.93-34.89 0.26-3.64 1.31-7.48 1.86-11.16 2.04-13.72 2.35-33.15 4.65-47.45 2.97-3.79 5.21-9.6 12.56-7.91 1.07 0.25 3.86 2.46 4.65 3.72 3.8 6.06 2.18 21.29 2.33 30.7 0.1 6.09-0.66 14.48-1.39 20 -0.41 3.13 0.54 6.21 0.93 8.84C300.21 84.94 296.34 99.01 300.82 109.14zM367.34 64.95c0 0.62-0.81 0.43-0.93 0.93 -2.64 3.36-3.57 7.45-5.12 11.63 -1.72 4.66-3.82 10.87-6.51 14.89 -1.44 2.15-3.52 3.79-5.12 6.05 -0.73 1.03-1.52 2.17-2.33 3.26 -0.77 1.04-2.04 2.09-2.79 3.26 -2.81 4.37-3.43 10.27-6.04 14.89 -1.06 1.87-2.97 2.77-3.26 5.12 3.93 3.67 8.1 7.1 12.1 10.7 1.5-3.83 3.73-7.22 5.58-11.17 1.73-3.68 2.79-7.92 4.65-12.09 1.15-2.56 3.36-4.5 4.65-6.98 1.32-2.52 1.79-5.77 3.26-8.37 0.83-1.48 2.08-2.46 2.79-3.72 2.88-5.09 6.03-13.85 5.12-20.47 -0.4-2.9-1.54-5.52-3.25-7.91C369.21 64.95 368.27 64.95 367.34 64.95zM319.9 240.32c-0.13 1.58-2.37 1.04-2.79 2.33 -4.11-0.19-7.86 0.25-11.63 0 -2.56-0.17-4.97-1.32-7.44-1.39 -2.06-0.06-4.57 1.25-6.98 1.4 -0.77 0.05-1.62-0.55-2.32-0.46 -5 0.63-8.55 1.5-13.96 1.4 -5.32-0.1-10.97 1.88-13.49-2.33 0.94-1.43 2.76 0.3 3.72 0.47 5.04 0.88 12.29-0.1 17.21-0.93 3.28-0.55 7.15-0.38 10.23-0.93 7.33-1.31 16.2 2.24 22.79 1.4C316.94 241.03 318.02 239.85 319.9 240.32zM254.77 241.25c4.04 3.44 11.15 5.11 17.21 5.12 -1.28 2.12-4.98 1.72-7.44 1.4C260.2 247.19 255.17 245.21 254.77 241.25zM306.4 248.7c-0.58 1.75-4.7 0.84-6.05 0.47C301.06 246.11 304.27 248.14 306.4 248.7zM286.87 250.09c0.15 1.68-1.77 0.73-2.79 0.93 -1.72 0.34-3.88 1.47-5.12 0.47C279.52 249.25 284.83 249.3 286.87 250.09zM305.94 251.95c-0.63 1.36-2.73 0.74-3.72 0 -1.22 0.51-3.02 1.49-3.72-0.46C300.45 250.5 303.86 251.56 305.94 251.95zM285.94 252.42c-0.68 1.64-3.55 1.1-5.58 1.4C280.44 251.57 283.86 252.67 285.94 252.42zM305.01 254.74c-2.72-0.33-3.18-0.12-6.05 0C299.12 252.82 304.9 252.56 305.01 254.74zM285.47 256.6c-1.82 0.68-3.82 0.46-6.05 0.93C279.17 254.83 284.5 255.3 285.47 256.6zM304.08 258c-2.15-0.17-2.68-0.57-4.65 0C299.74 256.28 303.52 255.99 304.08 258zM283.61 261.26c-0.23 1.59-3.44 0.69-3.26-0.93C281.63 259.11 282.34 261.08 283.61 261.26zM299.89 260.79c1.66-0.11 2.43 0.67 2.33 2.33C300.93 262.85 299.61 262.63 299.89 260.79z"/></svg>