<svg xmlns="http://www.w3.org/2000/svg" version="1.1" id="Layer_1" x="0" y="0" width="547.2" height="289" viewBox="0 0 547.2 289" enable-background="new 0 0 547.2 289" xml:space="preserve"><linearGradient id="SVGID_1_" gradientUnits="userSpaceOnUse" x1="397" y1="-130.2" x2="397" y2="-418.2" gradientTransform="matrix(1 0 0 -1 -122.3999 -130.1992)"><stop offset="0" stop-color="#B99771"/><stop offset="1" stop-color="#33261C"/></linearGradient><rect x="1" fill="url(#SVGID_1_)" width="547.2" height="288"/><path id="path3357" fill="#FFFFFF" d="M449.41 263.29l1.14-10.71 2.93-40.74c2.32-26.88 2.26-32.27-0.39-33.29 -1.74-0.67-3.95 0.06-4.92 1.62 -1.06 1.71-2.36-0.97-3.28-6.74 -0.84-5.27-0.93-10.55-0.19-11.75s0.31-2.17-0.95-2.17c-1.26 0-2.74 2.34-3.29 5.2l-1 5.2 -0.31-5.14c-0.2-3.23-2.98-6.52-7.51-8.86 -3.96-2.04-6.49-2.59-5.64-1.22 0.85 1.38 0.45 2.5-0.9 2.5 -1.35 0-2.45-1.07-2.45-2.39s-2.34-3.35-5.2-4.54c-5.87-2.43 7.69-1.21 26.15 2.34 7.4 1.43 13.15 1.13 19.3-0.98 8.69-2.99 8.48-3.06-28.86-10.3 -20.69-4.01-38.14-7.8-38.76-8.43 -1.98-1.98 4.98-1.17 19.29 2.26 13.64 3.27 37.06 2.56 39.38-1.19 0.6-0.97-4.37-2.53-11.05-3.46 -9.56-1.46-7.69-3.92-17.3-3.36 -2.72 0-2.91-0.71-0.85-3.2 2.14-2.58-0.04-0.94-5.68-1.77 -3.85-0.56-5.65-2.53-5.65-1.37 0 2.53-18.48-0.18-22.32-3.27 -4.45-3.58-63.23 12.32-63.23 17.11 0 3.51-4.11-0.73-7.63-3.98 -1.43-1.32-1.79-2.23-3.76-1.49 -5.26 1.99-4.74-1.48-2.21-15.06 1.39-7.46 2.05-20.46 1.46-28.89 -1.18-16.88 0.8-22.83 7.63-22.83 5.14 0 5.79-2.42 1.74-6.47 -2.16-2.16-1.9-2.77 1.16-2.77 2.16 0 3.93-1.61 3.93-3.57 0-2.05-1.62-3.28-3.81-2.89 -2.09 0.37-4.24-0.55-4.76-2.04 -0.54-1.55 1.85-3.15 5.54-3.72 6.22-0.95 6.27-1.07 1.29-2.75 -2.86-0.96-5.2-3.31-5.2-5.22 0-2.33-1.52-3.07-4.62-2.26 -6.67 1.75-7.56-1.55-2.12-7.83 5.64-6.51 2.83-8.06-8.08-4.46 -9.72 3.21-14.11 11.79-12.17 19.51 1.16 4.6-1.79 6.51-7.06 8.51 -5.68 2.16-5.95 2.69-2.37 4.7 2.23 1.25 4.05 3.96 4.05 6.03s1 6.96 2.23 10.87c1.23 3.91 2.82 10.01 3.54 13.56 0.72 3.55 2.25 5.87 3.41 5.15 2.41-1.49 0.71 11.48-3.33 25.39 -2.61 9.01-2.72 8.68-4.18-12.87 -1.62-23.95-3.04-29.9-7.12-29.92 -3.89-0.03-8.65-11.08-5.27-12.22 1.84-0.62 1.67-2.04-0.57-4.76 -2.07-2.51-4.11-3.11-5.78-1.73 -1.42 1.18-3.55 1.97-4.72 1.76 -1.18-0.21-8.8 7.42-16.95 16.96 -8.14 9.54-17.31 20.2-20.36 23.7 -3.06 3.5-8.31 11.82-11.67 18.5 -3.36 6.68-7.02 12.49-8.13 12.92 -2.59 0.99-2.65 11.95-0.07 11.95 2.33 0 14.24-21.34 14.24-25.51 0-1.61 3.59-6.41 7.98-10.67 7.17-6.96 8.58-7.48 13.87-5.07 7.48 3.41 7.54 9.58 0.14 14.43 -3.16 2.07-7.84 7.65-10.39 12.4 -10.99 20.45-15.54 26.78-20.6 28.65 -4.89 1.81-5.25 1.47-3.96-3.67 1.53-6.09-2.18-10.22-5.86-6.54 -3.05 3.05 0.07 14.47 3.96 14.47 1.72 0 5.7 2.78 8.84 6.17 5.02 5.41 5.56 7.61 4.39 17.92 -1.6 14.21-7.46 26.47-17.94 37.58 -4.3 4.56-12.32 16.45-17.82 26.43l-10.01 18.14 -20.81 0.54 -20.81 0.54 20.23 0.77 20.23 0.77 -4.63 9.07c-7.24 14.2-6.41 16.19 6.79 16.19h11.41l11.95-21.39c6.57-11.76 15.83-25.55 20.56-30.64s16.17-19.91 25.41-32.95 17.6-23.7 18.59-23.7c3.64 0 13.96 18.63 13.96 25.21 0 9.41-12.84 67.44-17.76 80.25 -0.99 2.57 2.29 3.22 16.36 3.22 9.67 0 17.61-0.78 17.63-1.73 0.02-0.95 1.54-8.8 3.37-17.43s3.95-21.64 4.72-28.9c0.77-7.26 2.48-16.03 3.81-19.47 1.83-4.73 1.2-13.9-2.57-37.47 -4.69-29.33-4.76-31.55-1.13-37.09 2.12-3.24 4.78-5.89 5.91-5.89 1.15 0 2.05 32.62 2.05 73.99V289h66.94 66.94l0.7-12.14L449.41 263.29zM253.27 261.85c-8.59-0.44-22.63-0.44-31.22 0 -8.58 0.45-1.56 0.81 15.61 0.81S261.85 262.3 253.27 261.85zM311.03 262.17c-0.77-0.77-2.76-0.85-4.43-0.18 -1.84 0.74-1.3 1.29 1.4 1.4C310.43 263.48 311.8 262.94 311.03 262.17zM429.58 202.29c0-8.86 0.69-10.4 4.62-10.4 4.94 0 5.46 2.19 3.18 13.59C435.11 216.88 429.58 214.63 429.58 202.29zM413.4 207.11c0-1.8-1.01-3.62-2.24-4.05 -1.23-0.42-2.53-3.37-2.89-6.55 -0.56-4.99 0.38-5.88 6.87-6.51 7.49-0.72 7.52-0.68 7.52 9.83 0 9.01-0.68 10.55-4.62 10.55C415.48 210.38 413.4 208.91 413.4 207.11zM292.24 190.63c-3.63-2.67-3.88-3.84-1.45-6.76 2.4-2.89 2.35-3.55-0.23-3.58 -2.54-0.03-2.49-0.46 0.22-2.18 2.7-1.71 1.99-2.7-3.47-4.86l-6.86-2.72 6.44-2.25c9.73-3.41 13.24-0.96 13.06 9.09 -0.09 4.81-0.87 10.49-1.73 12.62C296.83 193.35 296.06 193.44 292.24 190.63zM293.16 162.43c0-1.36-2.08-1.94-4.62-1.27 -3.89 1.02-4.62 0.07-4.62-6 0-4.24 1.19-7.21 2.9-7.21 3.27 0 9.94 13.37 7.75 15.55C293.79 164.27 293.16 163.79 293.16 162.43zM394.9 154.09c0-11.1 3.34-13.71 11.18-8.74 2.45 1.56 2.29 2.26-0.82 3.45 -2.15 0.82-3.34 2.95-2.66 4.73 0.68 1.78-0.77 5.05-3.23 7.28C395.01 164.75 394.9 164.58 394.9 154.09zM295.47 133.11c0-1.8-0.63-4.92-1.4-6.94 -0.92-2.4-0.13-3.66 2.31-3.66 2.44 0 3.72-2.02 3.72-5.85 0-3.22 1.3-6.35 2.89-6.96 1.62-0.62 3.06-5.63 3.29-11.42 0.22-5.67 1.98-12.56 3.9-15.32 3.28-4.69 3.44-4.21 2.49 7.45 -0.56 6.85-3.61 19.63-6.79 28.4 -3.18 8.77-5.78 16.31-5.78 16.76s-1.04 0.82-2.31 0.82C296.51 136.39 295.47 134.91 295.47 133.11zM246.91 88.08c0-3.12 6.59-5 8.23-2.35 0.94 1.51 2.57 1.39 4.67-0.36 1.78-1.48 2.67-3.61 1.97-4.74s-0.05-2.05 1.43-2.05c1.55 0 2.08-1.61 1.24-3.8 -1.22-3.17-0.88-3.32 2.06-0.87 4.94 4.1 4.39 8.43-1.62 12.63C259.37 90.41 246.91 91.48 246.91 88.08zM304.9 70.29c0.11-2.69 0.66-3.24 1.4-1.4 0.67 1.67 0.59 3.66-0.18 4.43C305.35 74.1 304.8 72.73 304.9 70.29z"/></svg>