<?xml version="1.0" encoding="utf-8"?>
<!-- Generator: Adobe Illustrator 16.0.0, SVG Export Plug-In . SVG Version: 6.00 Build 0)  -->
<!DOCTYPE svg PUBLIC "-//W3C//DTD SVG 1.1//EN" "http://www.w3.org/Graphics/SVG/1.1/DTD/svg11.dtd">
<svg version="1.1" id="Layer_1" xmlns="http://www.w3.org/2000/svg" xmlns:xlink="http://www.w3.org/1999/xlink" x="0px" y="0px"
	 width="547.2px" height="289px" viewBox="0 0 547.2 289" enable-background="new 0 0 547.2 289" xml:space="preserve">
<linearGradient id="SVGID_1_" gradientUnits="userSpaceOnUse" x1="396.999" y1="-130.1992" x2="396.999" y2="-418.1997" gradientTransform="matrix(1 0 0 -1 -122.3999 -130.1992)">
	<stop  offset="0" style="stop-color:#B99771"/>
	<stop  offset="1" style="stop-color:#33261C"/>
</linearGradient>
<rect x="1" fill="url(#SVGID_1_)" width="547.199" height="288"/>
<path id="path3357" sodipodi:nodetypes="ccccccccsssssscccssssssssssccsssssssssssssssssssssssssssssssssssssssssssssssssssssccccccccccssssssssssssscccccccssccssccssccsssssccssscccssccssssccssssccssssssssssccsssssssccss" fill="#FFFFFF" d="
	M449.407,263.293l1.144-10.712l2.929-40.745c2.324-26.878,2.262-32.27-0.39-33.287c-1.739-0.667-3.951,0.062-4.916,1.623
	c-1.056,1.709-2.362-0.973-3.284-6.74c-0.843-5.268-0.928-10.555-0.189-11.749s0.312-2.172-0.946-2.172
	c-1.258,0-2.738,2.341-3.289,5.202l-1.002,5.203l-0.315-5.144c-0.198-3.234-2.983-6.523-7.506-8.862
	c-3.956-2.045-6.495-2.592-5.645-1.216c0.851,1.377,0.445,2.504-0.902,2.504c-1.347,0-2.448-1.074-2.448-2.387
	s-2.342-3.355-5.202-4.539c-5.866-2.427,7.692-1.211,26.146,2.344c7.399,1.426,13.149,1.133,19.3-0.981
	c8.694-2.989,8.48-3.065-28.863-10.305c-20.693-4.01-38.136-7.804-38.762-8.43c-1.985-1.985,4.979-1.17,19.288,2.26
	c13.635,3.268,37.058,2.558,39.376-1.193c0.602-0.974-4.37-2.531-11.048-3.463c-9.565-1.461-7.69-3.918-17.298-3.365
	c-2.72,0-2.91-0.715-0.85-3.197c2.142-2.582-0.036-0.939-5.682-1.769c-3.848-0.564-5.655-2.531-5.655-1.368
	c0,2.533-18.477-0.178-22.321-3.274c-4.447-3.583-63.234,12.322-63.234,17.109c0,3.505-4.106-0.729-7.634-3.978
	c-1.431-1.318-1.794-2.23-3.757-1.487c-5.263,1.993-4.742-1.476-2.207-15.064c1.392-7.46,2.047-20.461,1.456-28.891
	c-1.184-16.882,0.804-22.826,7.632-22.826c5.136,0,5.785-2.425,1.735-6.475c-2.158-2.158-1.901-2.774,1.156-2.774
	c2.162,0,3.931-1.606,3.931-3.57c0-2.047-1.623-3.28-3.807-2.891c-2.094,0.374-4.236-0.546-4.762-2.043
	c-0.542-1.547,1.854-3.155,5.541-3.721c6.218-0.954,6.273-1.072,1.293-2.749c-2.861-0.964-5.203-3.313-5.203-5.221
	c0-2.329-1.518-3.071-4.622-2.26c-6.672,1.745-7.563-1.554-2.115-7.835c5.644-6.508,2.825-8.065-8.083-4.465
	c-9.716,3.206-14.109,11.787-12.173,19.505c1.155,4.604-1.788,6.507-7.06,8.512c-5.685,2.161-5.953,2.694-2.365,4.702
	c2.226,1.246,4.046,3.96,4.046,6.032s1.005,6.963,2.232,10.868c1.228,3.906,2.819,10.006,3.536,13.555
	c0.718,3.549,2.253,5.867,3.412,5.151c2.407-1.487,0.708,11.481-3.326,25.392c-2.612,9.01-2.721,8.678-4.179-12.872
	c-1.619-23.946-3.036-29.896-7.125-29.923c-3.886-0.027-8.65-11.08-5.268-12.22c1.839-0.62,1.667-2.044-0.573-4.757
	c-2.067-2.506-4.109-3.115-5.781-1.729c-1.42,1.179-3.547,1.973-4.725,1.762c-1.178-0.209-8.805,7.423-16.949,16.961
	c-8.145,9.539-17.308,20.202-20.362,23.697c-3.056,3.495-8.308,11.819-11.671,18.498c-3.364,6.68-7.025,12.491-8.135,12.915
	c-2.588,0.988-2.654,11.947-0.072,11.947c2.327,0,14.241-21.345,14.241-25.515c0-1.607,3.591-6.41,7.98-10.673
	c7.168-6.962,8.579-7.478,13.873-5.065c7.483,3.41,7.544,9.58,0.143,14.43c-3.162,2.072-7.84,7.654-10.393,12.404
	c-10.99,20.453-15.54,26.779-20.605,28.653c-4.887,1.808-5.252,1.47-3.963-3.668c1.528-6.087-2.18-10.222-5.863-6.538
	c-3.048,3.049,0.073,14.47,3.955,14.47c1.718,0,5.698,2.775,8.844,6.169c5.018,5.41,5.557,7.61,4.392,17.92
	c-1.605,14.207-7.46,26.471-17.936,37.577c-4.301,4.56-12.322,16.452-17.824,26.428l-10.005,18.137l-20.81,0.544l-20.811,0.543
	l20.233,0.771l20.234,0.771l-4.626,9.067c-7.244,14.199-6.41,16.188,6.789,16.188h11.414l11.952-21.389
	c6.573-11.764,15.826-25.552,20.562-30.639s16.171-19.915,25.411-32.95s17.604-23.701,18.587-23.701
	c3.643,0,13.962,18.632,13.962,25.209c0,9.407-12.842,67.438-17.759,80.254c-0.987,2.572,2.285,3.216,16.355,3.216
	c9.674,0,17.607-0.781,17.63-1.734c0.022-0.954,1.537-8.798,3.366-17.431s3.952-21.64,4.718-28.904
	c0.766-7.264,2.48-16.026,3.812-19.472c1.828-4.731,1.199-13.897-2.57-37.466c-4.691-29.33-4.759-31.555-1.131-37.092
	c2.122-3.239,4.78-5.89,5.905-5.89c1.145,0,2.046,32.617,2.046,73.994V289h66.937h66.937l0.698-12.141L449.407,263.293z
	 M253.271,261.85c-8.585-0.445-22.632-0.445-31.217,0c-8.584,0.445-1.561,0.81,15.608,0.81S261.854,262.295,253.271,261.85z
	 M311.029,262.167c-0.769-0.768-2.763-0.85-4.432-0.183c-1.845,0.738-1.297,1.286,1.396,1.397
	C310.433,263.482,311.798,262.936,311.029,262.167z M429.584,202.288c0-8.864,0.685-10.405,4.624-10.405
	c4.944,0,5.458,2.194,3.18,13.585C435.105,216.877,429.584,214.628,429.584,202.288z M413.397,207.105
	c0-1.802-1.01-3.622-2.244-4.046c-1.234-0.425-2.535-3.373-2.891-6.552c-0.558-4.994,0.377-5.88,6.868-6.506
	c7.487-0.722,7.516-0.685,7.516,9.827c0,9.011-0.676,10.553-4.625,10.553C415.479,210.382,413.397,208.907,413.397,207.105z
	 M292.236,190.627c-3.631-2.666-3.882-3.837-1.451-6.765c2.396-2.888,2.353-3.548-0.235-3.576c-2.538-0.028-2.494-0.465,0.217-2.18
	c2.7-1.708,1.994-2.698-3.468-4.865l-6.859-2.721l6.436-2.255c9.728-3.408,13.244-0.959,13.057,9.093
	c-0.089,4.809-0.869,10.487-1.734,12.618C296.828,193.354,296.062,193.438,292.236,190.627z M293.157,162.425
	c0-1.364-2.081-1.938-4.624-1.271c-3.895,1.018-4.625,0.07-4.625-5.998c0-4.241,1.194-7.206,2.904-7.206
	c3.269,0,9.936,13.366,7.754,15.548C293.792,164.271,293.157,163.789,293.157,162.425z M394.899,154.088
	c0-11.1,3.336-13.709,11.177-8.737c2.454,1.556,2.287,2.261-0.818,3.452c-2.146,0.823-3.344,2.952-2.661,4.729
	c0.682,1.777-0.771,5.052-3.229,7.275C395.012,164.75,394.899,164.58,394.899,154.088z M295.47,133.107
	c0-1.803-0.632-4.925-1.403-6.937c-0.921-2.399-0.126-3.657,2.312-3.657c2.435,0,3.716-2.02,3.716-5.854
	c0-3.219,1.302-6.353,2.892-6.963c1.621-0.621,3.064-5.635,3.289-11.42c0.219-5.672,1.976-12.563,3.904-15.316
	c3.281-4.686,3.44-4.209,2.492,7.453c-0.557,6.851-3.614,19.631-6.794,28.398c-3.181,8.768-5.783,16.309-5.783,16.758
	s-1.04,0.817-2.312,0.817C296.51,136.388,295.47,134.912,295.47,133.107z M246.911,88.076c0-3.121,6.585-5,8.226-2.346
	c0.935,1.512,2.565,1.386,4.672-0.363c1.781-1.479,2.668-3.609,1.971-4.737s-0.055-2.05,1.429-2.05c1.55,0,2.077-1.614,1.24-3.796
	c-1.218-3.174-0.88-3.316,2.064-0.873c4.938,4.099,4.385,8.427-1.617,12.63C259.37,90.411,246.911,91.475,246.911,88.076z
	 M304.901,70.294c0.111-2.694,0.659-3.241,1.397-1.397c0.667,1.67,0.585,3.664-0.183,4.432
	C305.348,74.098,304.801,72.731,304.901,70.294z"/>
</svg>
