<?xml version="1.0" encoding="UTF-8"?>
<svg xmlns="http://www.w3.org/2000/svg" xmlns:xlink="http://www.w3.org/1999/xlink" width="1235" height="650">
<defs>
    <polygon id="pt" points="-0.1624598481164531,0 0,-0.5 0.1624598481164531,0" transform="scale(0.0616)" fill="#FFF"/>
    <g id="star"><use xlink:href="#pt" transform="rotate(-144)"/><use xlink:href="#pt" transform="rotate(-72)"/><use xlink:href="#pt"/><use xlink:href="#pt" transform="rotate(72)"/><use xlink:href="#pt" transform="rotate(144)"/></g>
    <g id="s5"><use xlink:href="#star" x="-0.252"/><use xlink:href="#star" x="-0.126"/><use xlink:href="#star"/><use xlink:href="#star" x="0.126"/><use xlink:href="#star" x="0.252"/></g>
    <g id="s6"><use xlink:href="#s5" x="-0.063"/><use xlink:href="#star" x="0.315"/></g>
    <g id="x4"><use xlink:href="#s6"/><use xlink:href="#s5" y="0.054"/><use xlink:href="#s6" y="0.108"/><use xlink:href="#s5" y="0.162"/></g>
    <g id="u"><use xlink:href="#x4" y="-0.216"/><use xlink:href="#x4"/><use xlink:href="#s6" y="0.216"/></g>
    <rect id="stripe" width="1235" height="50" fill="#B22234"/>
</defs>
<rect width="1235" height="650" fill="#FFF"/><use xlink:href="#stripe"/><use xlink:href="#stripe" y="100"/><use xlink:href="#stripe" y="200"/><use xlink:href="#stripe" y="300"/><use xlink:href="#stripe" y="400"/><use xlink:href="#stripe" y="500"/><use xlink:href="#stripe" y="600"/><rect width="494" height="350" fill="#3C3B6E"/><use xlink:href="#u" transform="translate(247,175) scale(650)"/>
  <g id="layer1" transform="translate(-163.7143,-600) scale(2)">
    <path
       style="fill:black;fill-opacity:.8;fill-rule:evenodd;stroke:none;stroke-width:0.5;stroke-linejoin:round;stroke-miterlimit:4;stroke-opacity:1"
       d="M 277.31274,408.96586 L 312.55469,410.62654 L 322.39888,408.90671 L 330.42147,409.83312 L 334.84319,408.4215 L 353.03843,407.85547 L 475.76278,336.39756 L 453.22171,331.40379 L 446.4537,328.86132 L 446.56844,327.59467 L 455.14909,328.67867 L 487.77596,335.98714 L 513.84033,343.26752 L 464.59961,419.37616 L 483.12841,414.70496 L 497.52392,421.54006 L 498.66286,424.82092 L 540.11276,402.30105 L 556.57456,418.27129 L 545.86805,440.41091 L 537.13589,458.69793 L 517.73251,459.08332 L 533.65645,467.58197 L 533.75691,475.35748 L 530.24012,482.83603 L 522.04589,483.40402 L 551.05119,495.36381 L 551.97847,498.79956 L 561.03253,503.85262 C 561.03253,503.45918 561.34565,505.28892 561.31052,505.28892 L 551.77237,506.43747 L 548.43361,509.07843 L 528.27464,505.35403 L 518.44098,503.2388 L 498.2109,500.92871 L 518.88475,512.48457 L 518.56098,518.15605 L 515.22913,527.01673 L 497.25979,526.33676 L 494.51945,526.04506 L 508.26661,533.64076 L 508.34011,536.57226 L 498.95147,575.02216 L 477.19755,581.32513 L 447.82638,529.99114 L 430.32814,517.1356 L 427.04017,516.31824 L 420.19042,610.38225 L 397.82306,606.26529 L 372.25029,600.68452 L 352.45085,593.86637 L 351.89501,592.1352 L 381.49702,598.0789 L 372.83407,580.0193 L 371.26051,579.71571 L 371.23887,579.02987 L 372.20937,578.82364 L 371.54813,576.62491 L 356.61737,546.94242 L 356.28698,546.21376 L 354.7308,545.78316 L 354.40377,544.80339 L 355.48037,544.41896 L 326.84102,485.12953 L 326.70192,482.86472 L 321.13959,481.96408 L 308.39522,473.41759 L 307.86934,470.53758 L 302.47288,469.77293 L 282.67329,458.39232 L 209.60877,427.92052 L 163.57965,414.93864 L 141.85709,401.92495 L 126.11999,398.05731 L 144.72215,398.75375 L 152.72741,397.1468 L 169.29057,396.34372 L 183.29152,397.701 L 199.59782,399.49482 L 208.46593,400.22396 L 225.15209,401.17546 L 253.75665,405.77728 L 256.93467,405.39649 L 255.94793,404.1553 L 255.97512,403.95496 L 247.50218,401.44273 L 252.86121,402.50188 L 256.98561,403.74658 L 258.86874,403.9024 L 260.13264,405.64085 L 261.86629,406.71948 L 270.06113,407.69177 L 277.31274,408.96586 z "
       id="rect1900" />
  </g>
</svg>