<svg xmlns="http://www.w3.org/2000/svg" version="1.1" x="0px" y="0px" width="633.333px" height="247px" viewBox="0 0 633.333 247" enable-background="new 0 0 633.333 247" xml:space="preserve"><path fill="#468D41" d="M5.999 236.931c0 0 61.521-66.95 142.222-66.95 80.701 0 96.263 19.542 169.726 37.637s98.796 19.542 147.65 19.542c0 0-54.284-5.429-98.072-15.923 -43.788-10.494-82.872-18.455-99.881-21.35 -17.008-2.896-51.75-7.962-93.367-7.962C132.66 181.924 64.987 186.629 5.999 236.931z"/><polygon points="178.611,46.046 148.6,46.046 148.6,11.931 132.877,21.127 132.877,46.046 101.78,46.046 101.78,60.582   132.877,60.582 132.877,175.576 148.6,175.576 148.6,60.582 178.611,60.582 "/><path fill="#468D41" d="M354.007 148.079c1.501 0 2.801 0.312 3.899 0.935 1.098 0.624 1.963 1.532 2.597 2.728s0.95 2.559 0.95 4.091 -0.324 2.896-0.973 4.091c-0.649 1.195-1.532 2.107-2.651 2.735 -1.118 0.628-2.454 0.942-4.007 0.942 -2.472 0-4.328-0.771-5.569-2.313s-1.861-3.355-1.861-5.439c0-1.522 0.321-2.873 0.965-4.053s1.545-2.094 2.704-2.743C351.22 148.403 352.535 148.079 354.007 148.079zM353.884 149.565c-1.164 0-2.15 0.459-2.957 1.379 -1.021 1.144-1.532 2.81-1.532 4.995 0 2.104 0.434 3.708 1.302 4.811 0.787 0.981 1.854 1.471 3.203 1.471 0.868 0 1.642-0.23 2.321-0.689 0.679-0.46 1.228-1.192 1.646-2.199s0.629-2.188 0.629-3.547c0-1.328-0.226-2.518-0.675-3.57 -0.347-0.837-0.871-1.489-1.57-1.954S354.762 149.565 353.884 149.565zM363.751 148.446h2.62v-2.298c0-1.583 0.523-2.878 1.57-3.884 1.047-1.006 2.413-1.509 4.099-1.509 1.124 0 2 0.235 2.628 0.705 0.628 0.47 0.942 0.98 0.942 1.532 0 0.368-0.125 0.677-0.375 0.927 -0.251 0.25-0.565 0.375-0.942 0.375 -0.338 0-0.629-0.061-0.874-0.184s-0.623-0.429-1.134-0.919c-0.541-0.511-1.057-0.766-1.547-0.766 -0.338 0-0.642 0.105-0.912 0.314 -0.271 0.209-0.48 0.516-0.628 0.919 -0.148 0.404-0.223 1.024-0.223 1.862v2.926h2.881v1.563h-2.881v9.944c0 0.684 0.051 1.141 0.153 1.371s0.255 0.391 0.46 0.483c0.204 0.092 0.679 0.138 1.425 0.138h0.628v1.287h-7.891v-1.287h0.475c0.807 0 1.32-0.051 1.54-0.153 0.22-0.102 0.378-0.268 0.476-0.498 0.097-0.229 0.14-0.753 0.13-1.57v-9.714h-2.62V148.446zM384.252 141.858h6.752l6.311 16.931 6.164-16.931h6.515v1.287h-0.551c-0.664 0-1.111 0.057-1.341 0.169 -0.23 0.113-0.411 0.312-0.544 0.594 -0.133 0.283-0.199 0.749-0.199 1.396v14.097c0 0.889 0.054 1.466 0.161 1.731 0.106 0.266 0.285 0.467 0.536 0.605 0.25 0.138 0.712 0.207 1.387 0.207h0.551v1.287h-8.166v-1.287h0.582c0.521 0 0.901-0.041 1.142-0.123 0.239-0.082 0.438-0.217 0.598-0.406 0.158-0.188 0.247-0.385 0.268-0.59 0.051-0.418 0.077-0.745 0.077-0.98V144.11l-6.981 19.122h-1.531l-7.024-18.846v15.138c0 0.771 0.066 1.293 0.199 1.565s0.34 0.483 0.62 0.632c0.281 0.149 0.784 0.224 1.51 0.224h0.49v1.287h-7.523v-1.287h0.43c0.725 0 1.243-0.077 1.555-0.23 0.312-0.153 0.534-0.37 0.667-0.651 0.132-0.281 0.199-0.835 0.199-1.663v-13.958c0-0.782-0.057-1.298-0.169-1.55s-0.299-0.439-0.56-0.563c-0.26-0.124-0.723-0.185-1.387-0.185h-0.735V141.858zM420.521 148.079c1.501 0 2.801 0.312 3.899 0.935 1.098 0.624 1.963 1.532 2.597 2.728s0.95 2.559 0.95 4.091 -0.324 2.896-0.973 4.091c-0.649 1.195-1.532 2.107-2.651 2.735 -1.118 0.628-2.454 0.942-4.007 0.942 -2.472 0-4.328-0.771-5.569-2.313s-1.861-3.355-1.861-5.439c0-1.522 0.321-2.873 0.965-4.053s1.545-2.094 2.704-2.743C417.733 148.403 419.049 148.079 420.521 148.079zM420.397 149.565c-1.164 0-2.15 0.459-2.957 1.379 -1.021 1.144-1.532 2.81-1.532 4.995 0 2.104 0.434 3.708 1.302 4.811 0.787 0.981 1.854 1.471 3.203 1.471 0.868 0 1.642-0.23 2.321-0.689 0.679-0.46 1.228-1.192 1.646-2.199s0.629-2.188 0.629-3.547c0-1.328-0.226-2.518-0.675-3.57 -0.347-0.837-0.871-1.489-1.57-1.954S421.275 149.565 420.397 149.565zM430.373 150.638v-1.272c0.909-0.102 1.588-0.225 2.038-0.368 0.449-0.143 1.098-0.449 1.945-0.919h1.104v2.911c1.347-1.134 2.496-1.902 3.45-2.306s1.92-0.605 2.899-0.605c0.837 0 1.576 0.141 2.219 0.421 0.643 0.281 1.165 0.662 1.568 1.142 0.403 0.48 0.671 1.026 0.804 1.64 0.081 0.378 0.122 0.95 0.122 1.716v6.742c0 0.807 0.059 1.326 0.176 1.555 0.118 0.23 0.305 0.396 0.56 0.498 0.255 0.103 0.884 0.153 1.885 0.153v1.287h-7.876v-1.287h0.43c0.735 0 1.235-0.066 1.501-0.199 0.266-0.132 0.457-0.327 0.575-0.582 0.117-0.255 0.176-0.776 0.176-1.563v-5.639c0-1.165-0.095-1.971-0.283-2.421 -0.189-0.449-0.511-0.814-0.966-1.096 -0.454-0.281-1.029-0.421-1.724-0.421 -0.827 0-1.711 0.212-2.65 0.636 -0.94 0.424-1.849 1.049-2.728 1.877v7.063c0 0.797 0.059 1.328 0.176 1.593 0.118 0.266 0.31 0.465 0.575 0.598 0.184 0.103 0.674 0.153 1.471 0.153h0.444v1.287h-7.906v-1.287h0.386c0.76 0 1.278-0.063 1.557-0.191 0.277-0.128 0.473-0.355 0.585-0.682 0.062-0.163 0.093-0.725 0.093-1.685v-8.749H430.373zM464.618 158.958l0.98 0.797c-1.92 2.564-4.224 3.846-6.91 3.846 -2.094 0-3.861-0.746-5.302-2.237 -1.44-1.492-2.16-3.345-2.16-5.562 0-1.481 0.334-2.812 1.004-3.992 0.669-1.18 1.599-2.096 2.788-2.75 1.19-0.654 2.557-0.981 4.099-0.981 1.757 0 3.223 0.432 4.397 1.295s1.763 1.734 1.763 2.612c0 0.47-0.139 0.833-0.414 1.088s-0.588 0.383-0.935 0.383c-0.184 0-0.362-0.046-0.536-0.138s-0.353-0.24-0.536-0.444c-0.082-0.092-0.23-0.378-0.444-0.858 -0.276-0.592-0.49-0.991-0.644-1.195 -0.317-0.408-0.708-0.73-1.173-0.965 -0.465-0.235-0.982-0.352-1.555-0.352 -0.868 0-1.673 0.24-2.413 0.72 -0.741 0.48-1.328 1.188-1.763 2.123 -0.434 0.935-0.65 2.051-0.65 3.348 0 2.013 0.536 3.611 1.608 4.796 0.93 1.021 2.038 1.532 3.325 1.532 0.592 0 1.192-0.1 1.8-0.299s1.183-0.493 1.724-0.881C463.07 160.566 463.719 159.938 464.618 158.958zM467.161 143.313v-1.272c1.304-0.102 2.653-0.531 4.048-1.287h1.177v15.289l5.637-4.47c0.899-0.715 1.349-1.191 1.349-1.426 0-0.143-0.098-0.255-0.291-0.337 -0.123-0.051-0.424-0.077-0.904-0.077h-0.812v-1.287h7.774v1.287c-0.868 0-1.562 0.09-2.084 0.268 -0.521 0.179-1.123 0.529-1.808 1.05l-4.43 3.41 5.229 5.707c0.5 0.552 0.909 0.94 1.226 1.165s0.633 0.38 0.95 0.467c0.316 0.087 0.812 0.135 1.486 0.146v1.287h-8.156v-1.287h0.628c0.623 0 1.017-0.048 1.18-0.146 0.163-0.097 0.245-0.227 0.245-0.391 0-0.164-0.153-0.399-0.46-0.706 -0.051-0.051-0.106-0.112-0.168-0.184l-4.076-4.671 -2.515 1.9v2.007c0 0.746 0.056 1.236 0.169 1.471 0.112 0.235 0.288 0.414 0.528 0.537 0.24 0.123 0.702 0.184 1.387 0.184h0.566v1.287h-7.875v-1.287c0.889-0.01 1.435-0.046 1.64-0.107 0.357-0.112 0.615-0.311 0.773-0.597s0.237-0.838 0.237-1.655v-16.272H467.161zM497.224 148.446h1.075l1.377 4.689 -1.38 0.459c-0.551-1.256-1.325-2.245-2.321-2.965 -0.995-0.72-2.004-1.08-3.025-1.08 -0.787 0-1.425 0.191-1.916 0.574 -0.49 0.383-0.735 0.825-0.735 1.326 0 0.47 0.179 0.873 0.536 1.21 0.348 0.347 1.129 0.741 2.345 1.18l2.988 1.057c1.685 0.603 2.834 1.247 3.447 1.931 0.603 0.695 0.904 1.481 0.904 2.36 0 0.746-0.226 1.463-0.675 2.153 -0.449 0.689-1.101 1.238-1.953 1.647 -0.854 0.408-1.831 0.613-2.935 0.613 -1.716 0-3.187-0.491-4.413-1.473l-0.321 1.105h-1.091l-1.912-5.01 1.379-0.552c0.931 1.471 1.811 2.513 2.64 3.126 1.156 0.868 2.404 1.302 3.744 1.302 0.891 0 1.622-0.238 2.195-0.712 0.572-0.475 0.859-1.004 0.859-1.586 0-0.48-0.179-0.919-0.536-1.318 -0.368-0.388-1.073-0.766-2.115-1.134l-3.539-1.287c-1.522-0.552-2.579-1.154-3.172-1.808 -0.593-0.653-0.889-1.404-0.889-2.252 0-1.031 0.482-1.943 1.448-2.735 0.965-0.792 2.193-1.188 3.685-1.188 0.776 0 1.472 0.1 2.084 0.3 0.613 0.199 1.216 0.53 1.809 0.99L497.224 148.446zM530.583 141.858h1.103l1.943 7.125 -1.425 0.398c-0.767-1.644-1.349-2.748-1.747-3.31 -0.654-0.909-1.469-1.629-2.444-2.16s-2.051-0.797-3.225-0.797c-1.379 0-2.648 0.371-3.808 1.112 -1.16 0.741-2.1 1.828-2.819 3.259 -0.721 1.431-1.08 3.042-1.08 4.831 0 1.84 0.364 3.481 1.095 4.922s1.719 2.551 2.965 3.328c1.247 0.777 2.59 1.166 4.03 1.166 1.358 0 2.748-0.39 4.168-1.168 1.419-0.779 2.65-1.871 3.692-3.275l1.226 0.842c-0.634 0.94-1.317 1.737-2.053 2.391 -1.165 1.052-2.375 1.829-3.632 2.329 -1.256 0.5-2.636 0.75-4.137 0.75 -3.32 0-6.017-1.231-8.09-3.692 -1.717-2.043-2.574-4.474-2.574-7.293 0-2.074 0.475-3.951 1.425-5.631s2.26-3.016 3.93-4.007 3.471-1.486 5.401-1.486c1.031 0 1.989 0.141 2.873 0.421 0.883 0.281 1.779 0.733 2.688 1.356L530.583 141.858zM544.156 148.079c1.501 0 2.801 0.312 3.899 0.935 1.098 0.624 1.963 1.532 2.597 2.728s0.95 2.559 0.95 4.091 -0.324 2.896-0.973 4.091c-0.649 1.195-1.532 2.107-2.651 2.735 -1.118 0.628-2.454 0.942-4.007 0.942 -2.472 0-4.328-0.771-5.569-2.313s-1.861-3.355-1.861-5.439c0-1.522 0.321-2.873 0.965-4.053s1.545-2.094 2.704-2.743C541.369 148.403 542.685 148.079 544.156 148.079zM544.033 149.565c-1.164 0-2.15 0.459-2.957 1.379 -1.021 1.144-1.532 2.81-1.532 4.995 0 2.104 0.434 3.708 1.302 4.811 0.787 0.981 1.854 1.471 3.203 1.471 0.868 0 1.642-0.23 2.321-0.689 0.679-0.46 1.228-1.192 1.646-2.199s0.629-2.188 0.629-3.547c0-1.328-0.226-2.518-0.675-3.57 -0.347-0.837-0.871-1.489-1.57-1.954S544.911 149.565 544.033 149.565zM553.977 150.638v-1.272c0.744-0.06 1.405-0.184 1.986-0.371 0.58-0.187 1.242-0.492 1.986-0.917h1.146v2.896c0.725-0.889 1.567-1.594 2.528-2.114 0.96-0.521 1.823-0.782 2.589-0.782 0.756 0 1.354 0.179 1.793 0.536 0.439 0.358 0.659 0.792 0.659 1.303 0 0.368-0.146 0.692-0.437 0.973 -0.292 0.281-0.642 0.421-1.05 0.421 -0.185 0-0.343-0.025-0.476-0.077 -0.133-0.051-0.327-0.163-0.582-0.337 -0.562-0.368-1.031-0.552-1.409-0.552 -0.511 0-1.073 0.215-1.686 0.644 -0.776 0.552-1.385 1.093-1.823 1.625v7.063c0 0.613 0.032 1.029 0.1 1.249 0.066 0.22 0.176 0.409 0.329 0.567 0.153 0.159 0.342 0.273 0.567 0.345 0.224 0.072 0.617 0.107 1.18 0.107h0.505v1.287h-7.921v-1.287h0.658c0.623 0 1.032-0.056 1.227-0.168 0.265-0.153 0.462-0.365 0.59-0.636 0.127-0.271 0.191-0.759 0.191-1.463v-9.04H553.977zM568.778 150.638v-1.272c0.909-0.102 1.588-0.225 2.038-0.368 0.449-0.143 1.098-0.449 1.945-0.919h1.104v2.911c1.347-1.134 2.496-1.902 3.45-2.306s1.92-0.605 2.899-0.605c0.837 0 1.576 0.141 2.219 0.421 0.643 0.281 1.165 0.662 1.568 1.142 0.403 0.48 0.671 1.026 0.804 1.64 0.081 0.378 0.122 0.95 0.122 1.716v6.742c0 0.807 0.059 1.326 0.176 1.555 0.118 0.23 0.305 0.396 0.56 0.498 0.255 0.103 0.884 0.153 1.885 0.153v1.287h-7.876v-1.287h0.43c0.735 0 1.235-0.066 1.501-0.199 0.266-0.132 0.457-0.327 0.575-0.582 0.117-0.255 0.176-0.776 0.176-1.563v-5.639c0-1.165-0.095-1.971-0.283-2.421 -0.189-0.449-0.511-0.814-0.966-1.096 -0.454-0.281-1.029-0.421-1.724-0.421 -0.827 0-1.711 0.212-2.65 0.636 -0.94 0.424-1.849 1.049-2.728 1.877v7.063c0 0.797 0.059 1.328 0.176 1.593 0.118 0.266 0.31 0.465 0.575 0.598 0.184 0.103 0.674 0.153 1.471 0.153h0.444v1.287h-7.906v-1.287h0.386c0.76 0 1.278-0.063 1.557-0.191 0.277-0.128 0.473-0.355 0.585-0.682 0.062-0.163 0.093-0.725 0.093-1.685v-8.749H568.778zM602.595 159.279l0.98 0.797c-0.746 0.889-1.469 1.593-2.168 2.114 -0.7 0.521-1.361 0.886-1.984 1.096 -0.623 0.209-1.354 0.314-2.191 0.314 -1.501 0-2.778-0.306-3.83-0.919 -1.206-0.705-2.13-1.624-2.773-2.758s-0.966-2.472-0.966-4.015c0-1.614 0.312-2.993 0.935-4.137s1.494-2.045 2.613-2.705c1.118-0.659 2.413-0.988 3.884-0.988 1.093 0 2.043 0.171 2.85 0.512 0.808 0.341 1.491 0.856 2.054 1.544 0.562 0.688 0.97 1.475 1.226 2.361 0.143 0.52 0.225 1.192 0.245 2.018h-10.833c-0.03 0.501-0.046 0.875-0.046 1.121 0 1.29 0.225 2.439 0.674 3.447 0.45 1.009 1.045 1.75 1.785 2.227 0.741 0.476 1.581 0.714 2.521 0.714 0.797 0 1.568-0.186 2.314-0.559C600.628 161.09 601.532 160.362 602.595 159.279zM600.633 153.089c-0.153-0.939-0.37-1.634-0.65-2.083 -0.281-0.45-0.68-0.807-1.195-1.073 -0.517-0.266-1.096-0.398-1.739-0.398s-1.246 0.133-1.809 0.398c-0.562 0.266-1.028 0.634-1.401 1.104s-0.697 1.154-0.973 2.053H600.633zM605.781 150.638v-1.272c0.744-0.06 1.405-0.184 1.986-0.371 0.58-0.187 1.242-0.492 1.986-0.917h1.146v2.896c0.725-0.889 1.567-1.594 2.528-2.114 0.96-0.521 1.823-0.782 2.589-0.782 0.756 0 1.354 0.179 1.793 0.536 0.439 0.358 0.659 0.792 0.659 1.303 0 0.368-0.146 0.692-0.437 0.973 -0.292 0.281-0.642 0.421-1.05 0.421 -0.185 0-0.343-0.025-0.476-0.077 -0.133-0.051-0.327-0.163-0.582-0.337 -0.562-0.368-1.031-0.552-1.409-0.552 -0.511 0-1.073 0.215-1.686 0.644 -0.776 0.552-1.385 1.093-1.823 1.625v7.063c0 0.613 0.032 1.029 0.1 1.249 0.066 0.22 0.176 0.409 0.329 0.567 0.153 0.159 0.342 0.273 0.567 0.345 0.224 0.072 0.617 0.107 1.18 0.107h0.505v1.287h-7.921v-1.287h0.658c0.623 0 1.032-0.056 1.227-0.168 0.265-0.153 0.462-0.365 0.59-0.636 0.127-0.271 0.191-0.759 0.191-1.463v-9.04H605.781z"/><path d="M196.79 94.048h18.315c4.475 0 7.541 0.202 9.199 0.606 2.449 0.588 4.387 1.655 5.814 3.2 1.427 1.545 2.141 3.402 2.141 5.572 0 1.563-0.377 2.965-1.132 4.206 -0.754 1.241-1.85 2.304-3.286 3.186 -0.92 0.57-2.173 1.057-3.755 1.462 2 0.368 3.524 0.81 4.571 1.326 1.579 0.774 2.827 1.879 3.745 3.315 0.917 1.436 1.376 3.057 1.376 4.861 0 1.749-0.451 3.37-1.353 4.861 -0.902 1.492-2.176 2.716-3.823 3.674 -1.647 0.958-3.566 1.57-5.755 1.837 -2.19 0.267-4.444 0.4-6.763 0.4H196.79v-2.319h1.297c1.251 0 2.107-0.193 2.567-0.58 0.662-0.533 0.994-1.417 0.994-2.65v-26.748c0-1.26-0.102-2.122-0.304-2.585 -0.203-0.463-0.506-0.797-0.911-1.001s-1.187-0.306-2.346-0.306h-1.297V94.048zM206.81 97.112v14.105h7.049c3.298 0 5.556-0.156 6.772-0.469 1.898-0.497 3.349-1.343 4.354-2.54 1.004-1.196 1.506-2.732 1.506-4.609 0-1.583-0.457-2.903-1.369-3.961 -0.912-1.058-2.133-1.78-3.662-2.167 -0.996-0.239-3.059-0.359-6.192-0.359H206.81zM206.81 113.867v12.643c0 1.27 0.055 2.024 0.166 2.263 0.147 0.332 0.442 0.562 0.883 0.69 0.313 0.093 1.196 0.138 2.65 0.138h3.754c3.717 0 6.372-0.207 7.963-0.621 1.591-0.414 2.949-1.288 4.071-2.622 1.123-1.334 1.684-2.94 1.684-4.817 0-1.583-0.456-2.985-1.367-4.209 -0.911-1.224-2.171-2.107-3.781-2.65 -1.611-0.542-4.468-0.814-8.571-0.814H206.81zM258.229 116.572l0.005-3.009c0-2.042-0.572-3.5-1.715-4.375 -1.144-0.874-2.757-1.311-4.841-1.311 -1.033 0-1.936 0.124-2.711 0.373 -0.774 0.249-1.397 0.589-1.867 1.021 -0.47 0.433-0.816 0.925-1.038 1.477 -0.092 0.203-0.313 0.985-0.664 2.346 -0.424 1.656-1.279 2.484-2.567 2.484 -0.736 0-1.33-0.244-1.78-0.731 -0.451-0.487-0.676-1.146-0.676-1.974 0-1.214 0.451-2.406 1.353-3.575 0.901-1.168 2.277-2.134 4.127-2.898 1.849-0.763 4.034-1.146 6.556-1.146 2.355 0 4.37 0.363 6.045 1.089 1.674 0.726 2.908 1.769 3.699 3.129 0.552 0.938 0.828 2.647 0.828 5.128v10.616c0 1.508 0.046 2.491 0.138 2.951 0.202 0.791 0.556 1.383 1.062 1.779 0.506 0.395 1.164 0.592 1.974 0.592 0.847 0 1.859-0.194 3.037-0.584v2.405c-1.528 0.442-2.898 0.663-4.113 0.663 -1.307 0-2.406-0.184-3.299-0.552 -0.893-0.368-1.624-0.906-2.194-1.615 -0.571-0.708-0.938-1.55-1.104-2.525 -2.208 1.73-4.205 2.944-5.99 3.644s-3.588 1.049-5.41 1.049c-2.54 0-4.601-0.69-6.183-2.07 -1.583-1.38-2.374-2.999-2.374-4.858 0-1.123 0.29-2.19 0.87-3.202 0.581-1.012 1.465-1.905 2.653-2.678 1.188-0.772 3.054-1.453 5.596-2.042C250.188 117.584 253.716 117.051 258.229 116.572zM258.215 118.974c-4.271 0.626-6.914 1.059-7.926 1.297 -2.007 0.46-3.443 0.966-4.309 1.519 -0.866 0.552-1.482 1.146-1.851 1.78 -0.368 0.635-0.552 1.311-0.552 2.028s0.207 1.413 0.622 2.084c0.414 0.672 0.999 1.201 1.754 1.587 0.755 0.386 1.556 0.58 2.403 0.58 1.196 0 2.55-0.285 4.06-0.856 1.51-0.57 3.444-1.683 5.801-3.339L258.215 118.974zM270.876 109.865v-2.291c1.38 0 2.604-0.172 3.671-0.518 1.067-0.345 2.236-0.946 3.505-1.801h2.181v4.61c2.3-1.822 4.214-3.045 5.742-3.671 1.527-0.625 3.054-0.938 4.582-0.938 3.147 0 5.829 1.233 8.046 3.699 2.217 2.466 3.326 5.677 3.326 9.633 0 4.38-1.261 7.968-3.782 10.765 -2.3 2.577-5.263 3.865-8.888 3.865 -1.804 0-3.497-0.341-5.079-1.021 -1.141-0.478-2.457-1.334-3.947-2.567v9.082c0 1.361 0.037 2.162 0.11 2.401 0.092 0.349 0.276 0.644 0.552 0.883 0.276 0.239 0.625 0.396 1.049 0.469 0.313 0.055 1.362 0.083 3.147 0.083v2.319h-14.216v-2.319h1.242c1.27 0 2.093-0.096 2.47-0.29s0.658-0.493 0.842-0.897c0.11-0.313 0.166-1.27 0.166-2.871v-28.625H270.876zM280.234 112.708v9.496c0 1.251 0.073 2.181 0.221 2.788 0.22 0.938 0.647 1.785 1.281 2.54 0.633 0.755 1.497 1.399 2.59 1.932 1.093 0.534 2.237 0.801 3.431 0.801 2.388 0 4.459-0.901 6.213-2.705 1.755-1.803 2.632-4.536 2.632-8.198 0-3.423-0.726-6.068-2.177-7.936 -1.451-1.868-3.168-2.802-5.152-2.802 -1.286 0-2.683 0.341-4.189 1.021C283.578 110.325 281.961 111.346 280.234 112.708zM313.496 96.532h1.959v9.385h8.198v2.76h-8.198v16.645c0 1.417 0.125 2.429 0.373 3.036 0.248 0.607 0.671 1.104 1.27 1.491 0.598 0.386 1.265 0.58 2.001 0.58 1.748 0 3.68-0.782 5.796-2.346v2.677c-2.415 1.638-4.858 2.457-7.329 2.457 -1.402 0-2.669-0.313-3.803-0.938 -1.134-0.625-1.908-1.362-2.323-2.208 -0.415-0.846-0.623-2.318-0.623-4.417v-16.976h-4.831v-2.318c1.551-0.35 2.803-0.893 3.754-1.629 0.951-0.736 1.722-1.693 2.313-2.871C312.646 100.683 313.126 98.906 313.496 96.532zM327.464 109.865v-2.291c1.526-0.182 2.811-0.436 3.851-0.763 1.039-0.328 2.222-0.846 3.547-1.556h2.015v22.138c0 0.773 0.11 1.353 0.331 1.739 0.221 0.387 0.529 0.667 0.925 0.842 0.396 0.175 1.118 0.262 2.167 0.262h1.298v2.319h-14.133v-2.319h1.131c1.233 0 2.062-0.11 2.484-0.331 0.424-0.221 0.723-0.534 0.897-0.938s0.263-1.353 0.263-2.843v-16.258H327.464zM334.475 92.806c0.884 0 1.638 0.308 2.264 0.925 0.625 0.617 0.938 1.366 0.938 2.25s-0.313 1.638-0.938 2.263c-0.626 0.626-1.38 0.938-2.264 0.938 -0.883 0-1.638-0.312-2.264-0.938 -0.626-0.625-0.938-1.38-0.938-2.263s0.312-1.633 0.938-2.25S333.592 92.806 334.475 92.806zM363.32 105.917h1.937l2.479 8.447 -2.484 0.828c-0.993-2.264-2.388-4.044-4.182-5.341s-3.611-1.946-5.452-1.946c-1.417 0-2.566 0.345-3.45 1.035 -0.883 0.69-1.325 1.486-1.325 2.388 0 0.847 0.322 1.574 0.967 2.181 0.625 0.626 2.033 1.334 4.223 2.125l5.383 1.905c3.036 1.086 5.106 2.245 6.211 3.478 1.086 1.251 1.629 2.668 1.629 4.251 0 1.343-0.405 2.636-1.215 3.878s-1.983 2.232-3.52 2.967c-1.536 0.736-3.299 1.104-5.286 1.104 -3.092 0-5.741-0.885-7.949-2.654l-0.58 1.992h-1.965l-3.445-9.026 2.484-0.994c1.677 2.65 3.263 4.527 4.756 5.631 2.082 1.564 4.331 2.346 6.745 2.346 1.604 0 2.922-0.428 3.954-1.284 1.032-0.856 1.549-1.808 1.549-2.857 0-0.865-0.322-1.656-0.967-2.374 -0.662-0.699-1.932-1.38-3.809-2.042l-6.377-2.319c-2.742-0.994-4.646-2.079-5.714-3.257s-1.601-2.53-1.601-4.058c0-1.858 0.869-3.5 2.608-4.927s3.951-2.14 6.639-2.14c1.398 0 2.649 0.18 3.754 0.54 1.104 0.36 2.189 0.955 3.257 1.785L363.32 105.917zM381.317 96.532h1.96v9.385h8.198v2.76h-8.198v16.645c0 1.417 0.124 2.429 0.372 3.036 0.249 0.607 0.672 1.104 1.27 1.491 0.599 0.386 1.266 0.58 2.002 0.58 1.748 0 3.68-0.782 5.797-2.346v2.677c-2.416 1.638-4.859 2.457-7.329 2.457 -1.402 0-2.67-0.313-3.804-0.938 -1.134-0.625-1.908-1.362-2.323-2.208 -0.415-0.846-0.622-2.318-0.622-4.417v-16.976h-4.83v-2.318c1.551-0.35 2.802-0.893 3.754-1.629 0.951-0.736 1.722-1.693 2.312-2.871C380.467 100.683 380.947 98.906 381.317 96.532zM444.894 94.048h1.987l3.5 12.835 -2.567 0.718c-1.38-2.963-2.429-4.95-3.146-5.962 -1.178-1.638-2.646-2.935-4.403-3.892 -1.757-0.957-3.694-1.436-5.81-1.436 -2.484 0-4.771 0.668-6.859 2.003 -2.089 1.335-3.782 3.292-5.079 5.871 -1.298 2.578-1.946 5.479-1.946 8.702 0 3.315 0.657 6.271 1.974 8.868 1.315 2.597 3.096 4.595 5.341 5.995 2.245 1.4 4.665 2.1 7.26 2.1 2.447 0 4.95-0.702 7.508-2.105 2.558-1.404 4.775-3.37 6.653-5.9l2.208 1.518c-1.142 1.693-2.374 3.129-3.699 4.306 -2.098 1.896-4.278 3.294-6.542 4.196s-4.748 1.353-7.453 1.353c-5.98 0-10.839-2.217-14.574-6.652 -3.092-3.681-4.638-8.061-4.638-13.139 0-3.736 0.856-7.117 2.567-10.145 1.712-3.027 4.071-5.433 7.08-7.218 3.009-1.785 6.253-2.677 9.73-2.677 1.858 0 3.584 0.253 5.176 0.759 1.592 0.507 3.206 1.321 4.844 2.443L444.894 94.048zM455.404 96.753v-2.374c1.784-0.239 3.174-0.52 4.168-0.842 0.993-0.322 2.033-0.814 3.119-1.477h2.153v18.246c2.082-1.748 4.054-3.027 5.915-3.837 1.861-0.81 3.639-1.215 5.335-1.215 2.469 0 4.505 0.736 6.108 2.208 1.585 1.473 2.378 3.267 2.378 5.383v13.553c0 1.344 0.105 2.222 0.317 2.636 0.211 0.414 0.565 0.718 1.062 0.911 0.497 0.193 1.61 0.29 3.34 0.29v2.319H475.03v-2.319h1.049c1.343 0 2.226-0.105 2.649-0.317 0.423-0.211 0.731-0.561 0.925-1.049 0.193-0.487 0.29-1.495 0.29-3.022v-9.413c0-2.08-0.074-3.432-0.221-4.058 -0.276-1.067-0.847-1.923-1.712-2.567 -0.865-0.644-1.969-0.966-3.312-0.966 -1.509 0-3.087 0.373-4.733 1.118 -1.647 0.745-3.354 1.863-5.12 3.354v13.829c0 1.031 0.092 1.721 0.275 2.07s0.487 0.607 0.911 0.773c0.423 0.166 1.27 0.248 2.539 0.248h1.132v2.319h-14.298v-2.319h0.855c1.343 0 2.318-0.166 2.926-0.497 0.331-0.166 0.57-0.487 0.718-0.966 0.147-0.478 0.221-1.803 0.221-3.975V96.753H455.404zM491.233 105.917l10.462-0.414v17.776c0 1.564 0.216 2.807 0.648 3.727 0.433 0.92 1.095 1.633 1.987 2.139 0.893 0.506 1.937 0.759 3.134 0.759 1.472 0 3.142-0.396 5.01-1.187 1.867-0.791 3.73-1.969 5.59-3.533v-12.863c0-1.361-0.102-2.254-0.304-2.677 -0.203-0.423-0.562-0.764-1.077-1.021 -0.515-0.257-1.324-0.386-2.429-0.386h-2.015v-2.319l10.461-0.414v20.592c0 1.325 0.11 2.24 0.331 2.747 0.222 0.506 0.548 0.865 0.98 1.076 0.432 0.212 1.302 0.317 2.608 0.317h0.855v2.319l-9.164 0.469v-5.106c-2.521 2.006-4.72 3.391-6.598 4.154 -1.877 0.763-3.781 1.146-5.714 1.146 -1.435 0-2.682-0.193-3.74-0.58 -1.058-0.387-1.987-0.966-2.787-1.739 -0.801-0.773-1.413-1.702-1.836-2.788 -0.424-1.085-0.635-2.245-0.635-3.478v-12.559c0-1.123-0.102-1.909-0.304-2.36 -0.203-0.451-0.538-0.81-1.008-1.076 -0.469-0.267-1.108-0.4-1.918-0.4h-2.54V105.917zM531.147 109.865v-2.291c1.34-0.109 2.532-0.332 3.578-0.668 1.045-0.336 2.238-0.887 3.577-1.651h2.064v5.217c1.307-1.601 2.825-2.871 4.555-3.809 1.729-0.939 3.285-1.408 4.665-1.408 1.361 0 2.438 0.322 3.229 0.966 0.791 0.645 1.187 1.426 1.187 2.346 0 0.663-0.262 1.247-0.786 1.753 -0.524 0.506-1.155 0.759-1.891 0.759 -0.332 0-0.617-0.046-0.856-0.138 -0.239-0.092-0.589-0.294-1.049-0.607 -1.012-0.663-1.858-0.994-2.539-0.994 -0.921 0-1.933 0.386-3.036 1.159 -1.399 0.994-2.494 1.97-3.285 2.926v12.725c0 1.104 0.06 1.854 0.18 2.25 0.119 0.396 0.317 0.736 0.593 1.021 0.276 0.285 0.617 0.492 1.021 0.621 0.405 0.129 1.113 0.193 2.126 0.193h0.911v2.319H531.12v-2.319h1.188c1.122 0 1.858-0.101 2.208-0.303 0.479-0.276 0.832-0.658 1.062-1.146 0.229-0.487 0.345-1.366 0.345-2.636v-16.286H531.147zM580.834 124.854l1.767 1.435c-3.46 4.62-7.609 6.929-12.449 6.929 -3.772 0-6.956-1.343-9.551-4.03 -2.595-2.687-3.893-6.026-3.893-10.02 0-2.668 0.603-5.065 1.809-7.19 1.205-2.125 2.88-3.777 5.023-4.955 2.144-1.177 4.605-1.767 7.384-1.767 3.165 0 5.806 0.778 7.922 2.333 2.116 1.556 3.175 3.124 3.175 4.707 0 0.847-0.248 1.5-0.745 1.96s-1.059 0.69-1.684 0.69c-0.332 0-0.653-0.083-0.967-0.249 -0.312-0.166-0.635-0.432-0.966-0.8 -0.147-0.166-0.414-0.681-0.801-1.546 -0.496-1.067-0.883-1.785-1.159-2.153 -0.57-0.736-1.274-1.316-2.111-1.739 -0.838-0.423-1.771-0.635-2.802-0.635 -1.564 0-3.014 0.433-4.348 1.297 -1.334 0.865-2.393 2.139-3.175 3.823 -0.782 1.684-1.173 3.695-1.173 6.032 0 3.625 0.966 6.505 2.898 8.64 1.675 1.84 3.671 2.76 5.99 2.76 1.066 0 2.148-0.179 3.243-0.538s2.13-0.888 3.105-1.587C578.046 127.752 579.214 126.62 580.834 124.854zM585.83 96.753v-2.374c1.784-0.239 3.174-0.52 4.168-0.842 0.993-0.322 2.033-0.814 3.119-1.477h2.153v18.246c2.082-1.748 4.054-3.027 5.915-3.837 1.861-0.81 3.639-1.215 5.335-1.215 2.469 0 4.505 0.736 6.108 2.208 1.585 1.473 2.378 3.267 2.378 5.383v13.553c0 1.344 0.105 2.222 0.317 2.636 0.211 0.414 0.565 0.718 1.062 0.911 0.497 0.193 1.61 0.29 3.34 0.29v2.319h-14.271v-2.319h1.049c1.343 0 2.226-0.105 2.649-0.317 0.423-0.211 0.731-0.561 0.925-1.049 0.193-0.487 0.29-1.495 0.29-3.022v-9.413c0-2.08-0.074-3.432-0.221-4.058 -0.276-1.067-0.847-1.923-1.712-2.567 -0.865-0.644-1.969-0.966-3.312-0.966 -1.509 0-3.087 0.373-4.733 1.118 -1.647 0.745-3.354 1.863-5.12 3.354v13.829c0 1.031 0.092 1.721 0.275 2.07s0.487 0.607 0.911 0.773c0.423 0.166 1.27 0.248 2.539 0.248h1.132v2.319H585.83v-2.319h0.855c1.343 0 2.318-0.166 2.926-0.497 0.331-0.166 0.57-0.487 0.718-0.966 0.147-0.478 0.221-1.803 0.221-3.975V96.753H585.83zM197.03 26.936h16.449l21.465 31.54v-31.54h16.604v57.008h-16.604l-21.349-31.301v31.301H197.03V26.936zM260.26 63.412c0-6.3 2.125-11.491 6.377-15.574 4.251-4.083 9.994-6.125 17.227-6.125 8.27 0 14.518 2.398 18.744 7.194 3.396 3.863 5.094 8.62 5.094 14.271 0 6.352-2.107 11.556-6.319 15.613 -4.213 4.058-10.04 6.085-17.479 6.085 -6.637 0-12.003-1.685-16.099-5.055C262.774 75.648 260.26 70.178 260.26 63.412zM276.126 63.373c0 3.682 0.745 6.404 2.236 8.167 1.491 1.763 3.364 2.644 5.619 2.644 2.281 0 4.154-0.868 5.619-2.605 1.464-1.736 2.197-4.523 2.197-8.36 0-3.578-0.739-6.241-2.217-7.991 -1.478-1.75-3.305-2.625-5.483-2.625 -2.308 0-4.213 0.888-5.716 2.664C276.877 57.041 276.126 59.744 276.126 63.373zM315.479 42.646h14.817v6.767c1.424-2.929 2.896-4.945 4.412-6.047 1.518-1.102 3.391-1.653 5.619-1.653 2.334 0 4.887 0.726 7.662 2.178l-4.9 11.277c-1.867-0.777-3.344-1.167-4.434-1.167 -2.074 0-3.682 0.855-4.822 2.566 -1.633 2.411-2.449 6.922-2.449 13.533v13.844h-15.905V42.646zM373.731 26.936v15.71h8.711v11.588h-8.711v14.631c0 1.759 0.169 2.924 0.506 3.492 0.519 0.88 1.426 1.32 2.723 1.32 1.166 0 2.8-0.336 4.899-1.009l1.166 10.925c-3.914 0.855-7.569 1.283-10.966 1.283 -3.94 0-6.844-0.505-8.71-1.515 -1.867-1.01-3.247-2.543-4.142-4.602s-1.342-5.392-1.342-10V54.234h-5.833V42.646h5.833v-7.583L373.731 26.936zM389.986 26.936h15.827v20.999c2.151-2.229 4.29-3.824 6.416-4.783 2.125-0.959 4.641-1.439 7.544-1.439 4.303 0 7.693 1.31 10.169 3.928 2.476 2.619 3.714 6.637 3.714 12.055v26.249h-15.905v-22.71c0-2.592-0.479-4.426-1.438-5.502 -0.959-1.075-2.308-1.614-4.044-1.614 -1.919 0-3.475 0.726-4.667 2.178 -1.192 1.452-1.788 4.058-1.788 7.816v19.832h-15.827V26.936zM440.306 72.472l15.71-1.478c0.647 1.867 1.556 3.202 2.723 4.005 1.166 0.804 2.722 1.206 4.666 1.206 2.125 0 3.771-0.453 4.938-1.359 0.907-0.673 1.361-1.514 1.361-2.523 0-1.139-0.597-2.019-1.789-2.641 -0.855-0.44-3.124-0.983-6.805-1.631 -5.497-0.958-9.313-1.845-11.452-2.661 -2.14-0.815-3.941-2.195-5.405-4.137 -1.466-1.942-2.197-4.157-2.197-6.643 0-2.72 0.79-5.063 2.372-7.032 1.581-1.968 3.759-3.438 6.533-4.409 2.773-0.971 6.493-1.457 11.16-1.457 4.925 0 8.561 0.376 10.907 1.127 2.347 0.752 4.304 1.919 5.872 3.5 1.568 1.582 2.871 3.72 3.908 6.417l-15.01 1.478c-0.39-1.322-1.038-2.294-1.944-2.917 -1.245-0.83-2.749-1.244-4.512-1.244 -1.788 0-3.091 0.317-3.907 0.951 -0.817 0.634-1.226 1.404-1.226 2.31 0 1.01 0.519 1.773 1.556 2.291 1.036 0.518 3.292 0.983 6.767 1.398 5.262 0.595 9.177 1.424 11.743 2.486s4.53 2.577 5.892 4.545c1.361 1.969 2.042 4.131 2.042 6.487 0 2.383-0.72 4.701-2.158 6.954 -1.439 2.253-3.708 4.046-6.806 5.38 -3.098 1.333-7.317 2-12.657 2 -7.544 0-12.917-1.075-16.119-3.228C443.267 79.498 441.213 76.438 440.306 72.472zM492.336 26.936h15.827v10.771h-15.827V26.936zM492.336 42.646h15.827v41.298h-15.827V42.646zM561.749 26.936v57.008h-14.816v-6.105c-2.074 2.592-3.966 4.342-5.678 5.25 -2.281 1.192-4.821 1.789-7.621 1.789 -5.626 0-9.923-2.139-12.892-6.416 -2.969-4.278-4.452-9.475-4.452-15.594 0-6.844 1.64-12.081 4.919-15.71s7.447-5.444 12.502-5.444c2.463 0 4.699 0.415 6.708 1.244 2.009 0.83 3.792 2.075 5.348 3.733V26.936H561.749zM545.883 63.178c0-3.24-0.688-5.658-2.061-7.252 -1.375-1.594-3.111-2.391-5.211-2.391 -1.842 0-3.384 0.765-4.628 2.294 -1.244 1.53-1.866 4.097-1.866 7.7 0 3.371 0.642 5.84 1.925 7.408 1.283 1.569 2.871 2.353 4.764 2.353 2.021 0 3.707-0.791 5.055-2.372C545.208 69.336 545.883 66.756 545.883 63.178zM617.24 67.223h-31.731c0.284 2.541 0.972 4.433 2.061 5.677 1.529 1.789 3.525 2.683 5.988 2.683 1.556 0 3.033-0.389 4.434-1.167 0.855-0.492 1.775-1.361 2.761-2.605l15.594 1.439c-2.386 4.148-5.264 7.123-8.633 8.924 -3.371 1.802-8.205 2.703-14.505 2.703 -5.471 0-9.774-0.771-12.91-2.313 -3.138-1.542-5.736-3.992-7.797-7.35 -2.062-3.357-3.092-7.304-3.092-11.841 0-6.455 2.067-11.679 6.202-15.671s9.845-5.989 17.13-5.989c5.911 0 10.577 0.895 13.999 2.683 3.422 1.789 6.027 4.381 7.816 7.777 1.789 3.396 2.684 7.816 2.684 13.26V67.223zM601.141 59.64c-0.311-3.059-1.134-5.25-2.469-6.572 -1.336-1.322-3.092-1.983-5.27-1.983 -2.515 0-4.524 0.999-6.027 2.994 -0.96 1.245-1.569 3.099-1.828 5.561H601.141z"/></svg>
