<svg xmlns="http://www.w3.org/2000/svg" version="1.1" id="Layer_1" x="0px" y="0px" width="742px" height="247px" viewBox="0 0 742 247" enable-background="new 0 0 742 247" xml:space="preserve"><path id="swoosh" fill="#468D41" d="M10 236.931c0 0 61.521-66.95 142.222-66.95 80.701 0 96.263 19.542 169.726 37.637s98.796 19.542 147.65 19.542c0 0-54.284-5.429-98.072-15.923 -43.788-10.494-82.872-18.455-99.881-21.35 -17.008-2.896-51.75-7.962-93.367-7.962C136.661 181.924 68.988 186.629 10 236.931z"/><polygon id="cross" points="182.612,46.046 152.601,46.046 152.601,11.931 136.878,21.127 136.878,46.046 105.781,46.046   105.781,60.582 136.878,60.582 136.878,175.576 152.601,175.576 152.601,60.582 182.612,60.582 "/><path id="of_Moncks_Corner" fill="#468D41" d="M418.883 185.602c1.749 0 3.263 0.363 4.542 1.088 1.278 0.726 2.287 1.785 3.024 3.177 0.738 1.392 1.107 2.98 1.107 4.765s-0.378 3.373-1.134 4.765 -1.785 2.454-3.088 3.186c-1.303 0.732-2.858 1.098-4.667 1.098 -2.879 0-5.042-0.898-6.487-2.695 -1.445-1.796-2.168-3.909-2.168-6.336 0-1.772 0.374-3.346 1.124-4.72 0.75-1.375 1.8-2.439 3.15-3.195C415.637 185.98 417.169 185.602 418.883 185.602zM418.739 187.333c-1.356 0-2.504 0.536-3.444 1.606 -1.189 1.333-1.784 3.272-1.784 5.818 0 2.451 0.505 4.319 1.517 5.604 0.916 1.142 2.159 1.713 3.73 1.713 1.011 0 1.912-0.268 2.703-0.803 0.792-0.536 1.431-1.389 1.919-2.561 0.487-1.172 0.731-2.549 0.731-4.132 0-1.546-0.262-2.933-0.785-4.158 -0.404-0.976-1.015-1.734-1.829-2.276C420.682 187.604 419.763 187.333 418.739 187.333zM430.233 186.03h3.052v-2.677c0-1.844 0.609-3.352 1.829-4.524s2.812-1.758 4.774-1.758c1.309 0 2.329 0.274 3.061 0.821s1.098 1.142 1.098 1.785c0 0.428-0.146 0.788-0.438 1.08 -0.291 0.292-0.657 0.438-1.098 0.438 -0.393 0-0.731-0.072-1.017-0.214 -0.286-0.143-0.727-0.5-1.321-1.071 -0.631-0.595-1.231-0.893-1.803-0.893 -0.393 0-0.746 0.123-1.062 0.366s-0.56 0.601-0.731 1.071c-0.173 0.47-0.259 1.193-0.259 2.168v3.409h3.355v1.82h-3.355v11.583c0 0.797 0.06 1.33 0.178 1.597 0.119 0.268 0.298 0.455 0.536 0.562 0.237 0.107 0.791 0.161 1.659 0.161h0.732v1.499h-9.191v-1.499h0.553c0.94 0 1.538-0.06 1.794-0.179 0.256-0.119 0.44-0.312 0.554-0.58 0.112-0.268 0.163-0.877 0.151-1.829v-11.315h-3.052V186.03zM454.112 178.356h7.865l7.35 19.721 7.18-19.721h7.589v1.499h-0.642c-0.774 0-1.294 0.066-1.562 0.198 -0.268 0.132-0.479 0.363-0.633 0.692 -0.155 0.33-0.232 0.872-0.232 1.626v16.419c0 1.035 0.062 1.708 0.188 2.017 0.125 0.31 0.333 0.544 0.625 0.705 0.291 0.161 0.829 0.241 1.615 0.241h0.642v1.499h-9.512v-1.499h0.678c0.606 0 1.05-0.047 1.33-0.143 0.279-0.095 0.511-0.252 0.695-0.473s0.289-0.449 0.312-0.688c0.06-0.487 0.09-0.868 0.09-1.142v-18.329l-8.132 22.273h-1.783l-8.183-21.952v17.633c0 0.898 0.077 1.506 0.232 1.823 0.154 0.317 0.396 0.562 0.723 0.736 0.327 0.174 0.913 0.261 1.758 0.261h0.571v1.499h-8.764v-1.499h0.5c0.845 0 1.448-0.089 1.812-0.268 0.363-0.178 0.622-0.431 0.776-0.758s0.232-0.973 0.232-1.937v-16.259c0-0.91-0.065-1.512-0.196-1.806 -0.132-0.293-0.349-0.512-0.651-0.656 -0.304-0.144-0.842-0.216-1.615-0.216h-0.857V178.356zM496.357 185.602c1.749 0 3.263 0.363 4.542 1.088 1.278 0.726 2.287 1.785 3.024 3.177 0.738 1.392 1.107 2.98 1.107 4.765s-0.378 3.373-1.134 4.765 -1.785 2.454-3.088 3.186c-1.303 0.732-2.858 1.098-4.667 1.098 -2.879 0-5.042-0.898-6.487-2.695 -1.445-1.796-2.168-3.909-2.168-6.336 0-1.772 0.374-3.346 1.124-4.72 0.75-1.375 1.8-2.439 3.15-3.195C493.111 185.98 494.644 185.602 496.357 185.602zM496.214 187.333c-1.356 0-2.504 0.536-3.444 1.606 -1.189 1.333-1.784 3.272-1.784 5.818 0 2.451 0.505 4.319 1.517 5.604 0.916 1.142 2.159 1.713 3.73 1.713 1.011 0 1.912-0.268 2.703-0.803 0.792-0.536 1.431-1.389 1.919-2.561 0.487-1.172 0.731-2.549 0.731-4.132 0-1.546-0.262-2.933-0.785-4.158 -0.404-0.976-1.015-1.734-1.829-2.276C498.156 187.604 497.237 187.333 496.214 187.333zM507.834 188.583v-1.481c1.059-0.119 1.85-0.262 2.373-0.428s1.279-0.523 2.267-1.071h1.285v3.391c1.568-1.321 2.908-2.216 4.02-2.686 1.11-0.47 2.236-0.705 3.377-0.705 0.975 0 1.836 0.164 2.584 0.491 0.749 0.327 1.357 0.771 1.827 1.33 0.47 0.56 0.781 1.196 0.936 1.91 0.095 0.44 0.143 1.106 0.143 1.999v7.853c0 0.94 0.068 1.544 0.205 1.812 0.137 0.268 0.354 0.461 0.651 0.58 0.298 0.119 1.029 0.179 2.195 0.179v1.499h-9.173v-1.499h0.499c0.857 0 1.439-0.078 1.749-0.232 0.31-0.155 0.532-0.381 0.67-0.678 0.137-0.297 0.205-0.904 0.205-1.821v-6.567c0-1.356-0.11-2.296-0.33-2.82 -0.221-0.523-0.596-0.949-1.125-1.276s-1.198-0.491-2.008-0.491c-0.963 0-1.992 0.247-3.087 0.741s-2.154 1.222-3.177 2.186v8.228c0 0.928 0.068 1.547 0.205 1.856s0.359 0.542 0.669 0.696c0.214 0.119 0.785 0.179 1.714 0.179h0.518v1.499h-9.21v-1.499h0.449c0.886 0 1.49-0.074 1.813-0.223s0.551-0.414 0.682-0.794c0.072-0.19 0.108-0.845 0.108-1.963v-10.191H507.834zM547.722 198.273l1.143 0.928c-2.237 2.986-4.92 4.479-8.05 4.479 -2.438 0-4.497-0.868-6.175-2.605s-2.517-3.896-2.517-6.479c0-1.725 0.39-3.275 1.169-4.649 0.779-1.374 1.862-2.442 3.248-3.204 1.387-0.761 2.978-1.142 4.774-1.142 2.047 0 3.754 0.503 5.122 1.508 1.368 1.006 2.053 2.02 2.053 3.043 0 0.548-0.161 0.97-0.482 1.268s-0.684 0.446-1.088 0.446c-0.215 0-0.423-0.053-0.625-0.161 -0.202-0.107-0.41-0.279-0.625-0.518 -0.095-0.107-0.268-0.44-0.518-0.999 -0.321-0.69-0.57-1.154-0.749-1.392 -0.369-0.476-0.824-0.851-1.365-1.125 -0.542-0.273-1.146-0.411-1.812-0.411 -1.012 0-1.948 0.28-2.812 0.839 -0.862 0.56-1.547 1.383-2.052 2.472 -0.506 1.089-0.759 2.389-0.759 3.9 0 2.344 0.625 4.206 1.874 5.586 1.082 1.19 2.373 1.785 3.873 1.785 0.689 0 1.389-0.116 2.097-0.348s1.377-0.574 2.008-1.026C545.919 200.147 546.675 199.416 547.722 198.273zM550.685 180.051v-1.481c1.519-0.119 3.091-0.619 4.716-1.5h1.37v17.809l6.566-5.207c1.047-0.833 1.57-1.387 1.57-1.661 0-0.167-0.113-0.298-0.339-0.393 -0.144-0.06-0.494-0.089-1.054-0.089h-0.945v-1.499h9.057v1.499c-1.012 0-1.821 0.104-2.428 0.312 -0.606 0.208-1.309 0.616-2.105 1.223l-5.16 3.972 6.09 6.647c0.583 0.643 1.059 1.095 1.428 1.356s0.738 0.443 1.106 0.544c0.369 0.102 0.946 0.158 1.731 0.17v1.499h-9.5v-1.499h0.731c0.726 0 1.184-0.057 1.374-0.17s0.286-0.265 0.286-0.456c0-0.191-0.179-0.465-0.536-0.823 -0.06-0.059-0.125-0.13-0.196-0.214l-4.748-5.441 -2.929 2.214v2.338c0 0.869 0.065 1.44 0.196 1.713 0.131 0.274 0.336 0.482 0.616 0.625 0.279 0.143 0.817 0.214 1.615 0.214h0.66v1.499h-9.174v-1.499c1.035-0.012 1.672-0.054 1.91-0.125 0.416-0.131 0.717-0.363 0.901-0.696 0.184-0.333 0.276-0.975 0.276-1.927v-18.954H550.685zM585.701 186.03h1.252l1.604 5.461 -1.606 0.535c-0.643-1.463-1.544-2.614-2.703-3.453 -1.16-0.839-2.336-1.258-3.525-1.258 -0.916 0-1.66 0.223-2.23 0.669 -0.571 0.446-0.857 0.961-0.857 1.544 0 0.547 0.208 1.018 0.625 1.41 0.404 0.404 1.314 0.863 2.73 1.374l3.48 1.231c1.963 0.702 3.302 1.452 4.016 2.249 0.702 0.809 1.053 1.725 1.053 2.748 0 0.869-0.262 1.705-0.785 2.508s-1.282 1.443-2.275 1.918 -2.133 0.714-3.418 0.714c-1.999 0-3.712-0.572-5.14-1.716l-0.375 1.288h-1.271l-2.228-5.836 1.606-0.643c1.084 1.713 2.109 2.927 3.074 3.641 1.347 1.012 2.801 1.517 4.362 1.517 1.036 0 1.889-0.276 2.556-0.83 0.668-0.554 1.002-1.169 1.002-1.847 0-0.56-0.209-1.071-0.625-1.535 -0.429-0.452-1.249-0.892-2.463-1.321l-4.123-1.499c-1.772-0.643-3.004-1.344-3.694-2.106 -0.69-0.761-1.035-1.636-1.035-2.624 0-1.202 0.562-2.264 1.687-3.186 1.125-0.922 2.556-1.383 4.293-1.383 0.903 0 1.713 0.116 2.427 0.349 0.714 0.233 1.416 0.618 2.106 1.154L585.701 186.03zM624.559 178.356h1.284l2.264 8.299 -1.66 0.464c-0.893-1.916-1.57-3.201-2.034-3.855 -0.762-1.059-1.711-1.898-2.847-2.517 -1.137-0.619-2.389-0.928-3.757-0.928 -1.606 0-3.085 0.432-4.436 1.295 -1.351 0.864-2.444 2.129-3.283 3.796s-1.259 3.542-1.259 5.626c0 2.144 0.426 4.055 1.276 5.734s2.002 2.971 3.453 3.876c1.451 0.905 3.017 1.357 4.694 1.357 1.582 0 3.2-0.454 4.854-1.361 1.653-0.907 3.087-2.179 4.301-3.814l1.428 0.981c-0.738 1.095-1.535 2.023-2.392 2.784 -1.356 1.226-2.767 2.13-4.229 2.713 -1.464 0.583-3.07 0.875-4.819 0.875 -3.866 0-7.008-1.434-9.423-4.301 -1.999-2.379-2.998-5.211-2.998-8.495 0-2.415 0.553-4.602 1.659-6.559 1.106-1.957 2.633-3.513 4.578-4.667 1.945-1.154 4.042-1.731 6.291-1.731 1.202 0 2.317 0.164 3.347 0.491 1.028 0.327 2.073 0.854 3.132 1.58L624.559 178.356zM640.367 185.602c1.749 0 3.263 0.363 4.542 1.088 1.278 0.726 2.287 1.785 3.024 3.177 0.738 1.392 1.107 2.98 1.107 4.765s-0.378 3.373-1.134 4.765 -1.785 2.454-3.088 3.186c-1.303 0.732-2.858 1.098-4.667 1.098 -2.879 0-5.042-0.898-6.487-2.695 -1.445-1.796-2.168-3.909-2.168-6.336 0-1.772 0.374-3.346 1.124-4.72 0.75-1.375 1.8-2.439 3.15-3.195C637.121 185.98 638.653 185.602 640.367 185.602zM640.224 187.333c-1.356 0-2.504 0.536-3.444 1.606 -1.189 1.333-1.784 3.272-1.784 5.818 0 2.451 0.505 4.319 1.517 5.604 0.916 1.142 2.159 1.713 3.73 1.713 1.011 0 1.912-0.268 2.703-0.803 0.792-0.536 1.431-1.389 1.919-2.561 0.487-1.172 0.731-2.549 0.731-4.132 0-1.546-0.262-2.933-0.785-4.158 -0.404-0.976-1.015-1.734-1.829-2.276C642.166 187.604 641.247 187.333 640.224 187.333zM651.807 188.583v-1.481c0.866-0.07 1.637-0.214 2.313-0.432 0.676-0.217 1.447-0.573 2.312-1.067h1.335v3.373c0.845-1.035 1.826-1.856 2.945-2.463 1.118-0.607 2.123-0.91 3.016-0.91 0.881 0 1.576 0.208 2.088 0.625s0.768 0.922 0.768 1.517c0 0.428-0.169 0.806-0.509 1.133 -0.339 0.327-0.746 0.491-1.222 0.491 -0.215 0-0.399-0.029-0.554-0.089 -0.154-0.059-0.381-0.19-0.678-0.393 -0.655-0.428-1.202-0.643-1.643-0.643 -0.595 0-1.249 0.25-1.963 0.75 -0.904 0.642-1.612 1.273-2.124 1.892v8.228c0 0.714 0.039 1.199 0.116 1.455s0.205 0.476 0.384 0.66c0.179 0.185 0.398 0.319 0.66 0.402 0.262 0.083 0.72 0.125 1.374 0.125h0.589v1.499h-9.227v-1.499h0.768c0.726 0 1.201-0.065 1.428-0.196 0.309-0.179 0.538-0.425 0.687-0.741 0.149-0.315 0.224-0.884 0.224-1.705v-10.53H651.807zM669.048 188.583v-1.481c1.059-0.119 1.85-0.262 2.373-0.428s1.279-0.523 2.267-1.071h1.285v3.391c1.568-1.321 2.908-2.216 4.02-2.686 1.11-0.47 2.236-0.705 3.377-0.705 0.975 0 1.836 0.164 2.584 0.491 0.749 0.327 1.357 0.771 1.827 1.33 0.47 0.56 0.781 1.196 0.936 1.91 0.095 0.44 0.143 1.106 0.143 1.999v7.853c0 0.94 0.068 1.544 0.205 1.812 0.137 0.268 0.354 0.461 0.651 0.58 0.298 0.119 1.029 0.179 2.195 0.179v1.499h-9.173v-1.499h0.499c0.857 0 1.439-0.078 1.749-0.232 0.31-0.155 0.532-0.381 0.67-0.678 0.137-0.297 0.205-0.904 0.205-1.821v-6.567c0-1.356-0.11-2.296-0.33-2.82 -0.221-0.523-0.596-0.949-1.125-1.276s-1.198-0.491-2.008-0.491c-0.963 0-1.992 0.247-3.087 0.741s-2.154 1.222-3.177 2.186v8.228c0 0.928 0.068 1.547 0.205 1.856s0.359 0.542 0.669 0.696c0.214 0.119 0.785 0.179 1.714 0.179h0.518v1.499h-9.21v-1.499h0.449c0.886 0 1.49-0.074 1.813-0.223s0.551-0.414 0.682-0.794c0.072-0.19 0.108-0.845 0.108-1.963v-10.191H669.048zM708.437 198.648l1.143 0.928c-0.869 1.035-1.711 1.856-2.525 2.463 -0.815 0.606-1.586 1.032-2.312 1.276s-1.576 0.366-2.552 0.366c-1.749 0-3.236-0.357-4.462-1.071 -1.404-0.821-2.48-1.892-3.23-3.212s-1.124-2.879-1.124-4.676c0-1.88 0.362-3.486 1.089-4.819 0.726-1.333 1.739-2.383 3.043-3.15 1.303-0.767 2.811-1.151 4.523-1.151 1.273 0 2.38 0.199 3.32 0.596 0.939 0.398 1.736 0.998 2.392 1.799 0.653 0.801 1.13 1.718 1.428 2.75 0.166 0.605 0.261 1.389 0.285 2.35h-12.618c-0.035 0.584-0.054 1.02-0.054 1.306 0 1.502 0.262 2.841 0.785 4.015s1.217 2.039 2.08 2.593c0.862 0.555 1.841 0.832 2.936 0.832 0.928 0 1.826-0.217 2.695-0.651C706.146 200.757 707.199 199.91 708.437 198.648zM706.152 191.438c-0.179-1.095-0.432-1.903-0.759-2.427 -0.327-0.523-0.791-0.94-1.392-1.249 -0.602-0.31-1.276-0.464-2.025-0.464 -0.75 0-1.452 0.155-2.106 0.464 -0.654 0.309-1.199 0.738-1.633 1.285 -0.435 0.547-0.812 1.345-1.134 2.392H706.152zM712.148 188.583v-1.481c0.866-0.07 1.637-0.214 2.313-0.432 0.676-0.217 1.447-0.573 2.312-1.067h1.335v3.373c0.845-1.035 1.826-1.856 2.945-2.463 1.118-0.607 2.123-0.91 3.016-0.91 0.881 0 1.576 0.208 2.088 0.625s0.768 0.922 0.768 1.517c0 0.428-0.169 0.806-0.509 1.133 -0.339 0.327-0.746 0.491-1.222 0.491 -0.215 0-0.399-0.029-0.554-0.089 -0.154-0.059-0.381-0.19-0.678-0.393 -0.655-0.428-1.202-0.643-1.643-0.643 -0.595 0-1.249 0.25-1.963 0.75 -0.904 0.642-1.612 1.273-2.124 1.892v8.228c0 0.714 0.039 1.199 0.116 1.455s0.205 0.476 0.384 0.66c0.179 0.185 0.398 0.319 0.66 0.402 0.262 0.083 0.72 0.125 1.374 0.125h0.589v1.499h-9.227v-1.499h0.768c0.726 0 1.201-0.065 1.428-0.196 0.309-0.179 0.538-0.425 0.687-0.741 0.149-0.315 0.224-0.884 0.224-1.705v-10.53H712.148z"/><path id="Baptist_Church" d="M235.758 122.668h21.333c5.213 0 8.784 0.235 10.715 0.707 2.853 0.686 5.11 1.928 6.773 3.727 1.663 1.799 2.494 3.962 2.494 6.49 0 1.821-0.439 3.454-1.318 4.899 -0.879 1.446-2.155 2.683-3.828 3.711 -1.073 0.664-2.531 1.231-4.375 1.703 2.331 0.429 4.105 0.944 5.324 1.544 1.839 0.901 3.292 2.188 4.362 3.861 1.069 1.673 1.604 3.56 1.604 5.662 0 2.038-0.525 3.926-1.576 5.663 -1.05 1.737-2.535 3.164-4.453 4.279 -1.919 1.115-4.153 1.829-6.704 2.14s-5.176 0.466-7.877 0.466h-22.475v-2.701h1.511c1.458 0 2.454-0.225 2.99-0.675 0.771-0.622 1.157-1.65 1.157-3.086v-31.156c0-1.468-0.118-2.472-0.354-3.011s-0.59-0.928-1.061-1.166c-0.472-0.237-1.382-0.356-2.733-0.356h-1.511V122.668zM247.43 126.237v16.43h8.21c3.842 0 6.472-0.182 7.888-0.546 2.21-0.579 3.901-1.564 5.071-2.958s1.755-3.183 1.755-5.37c0-1.843-0.531-3.381-1.594-4.614 -1.062-1.232-2.484-2.074-4.266-2.524 -1.16-0.278-3.563-0.418-7.212-0.418H247.43zM247.43 145.753v14.726c0 1.479 0.064 2.358 0.193 2.637 0.171 0.386 0.515 0.654 1.029 0.804 0.364 0.107 1.393 0.161 3.087 0.161h4.373c4.33 0 7.421-0.241 9.276-0.723 1.854-0.482 3.435-1.5 4.742-3.055 1.307-1.554 1.961-3.424 1.961-5.61 0-1.843-0.531-3.478-1.591-4.903 -1.061-1.425-2.53-2.454-4.405-3.086s-5.204-0.949-9.983-0.949H247.43zM307.324 148.904l0.005-3.504c0-2.379-0.666-4.078-1.998-5.096 -1.332-1.018-3.211-1.527-5.639-1.527 -1.203 0-2.255 0.145-3.157 0.434 -0.902 0.29-1.628 0.687-2.175 1.19 -0.548 0.504-0.951 1.077-1.208 1.72 -0.107 0.236-0.365 1.146-0.773 2.733 -0.494 1.929-1.49 2.894-2.99 2.894 -0.857 0-1.549-0.284-2.074-0.852 -0.525-0.568-0.788-1.334-0.788-2.299 0-1.415 0.525-2.802 1.575-4.164 1.05-1.361 2.653-2.486 4.807-3.376 2.154-0.89 4.699-1.334 7.636-1.334 2.744 0 5.091 0.423 7.042 1.269 1.95 0.846 3.386 2.061 4.308 3.645 0.643 1.092 0.965 3.083 0.965 5.974v12.365c0 1.756 0.053 2.902 0.161 3.437 0.235 0.921 0.648 1.612 1.238 2.072 0.589 0.46 1.355 0.69 2.299 0.69 0.986 0 2.165-0.227 3.537-0.68v2.801c-1.779 0.515-3.376 0.772-4.791 0.772 -1.522 0-2.803-0.214-3.842-0.643 -1.04-0.428-1.892-1.055-2.556-1.881 -0.665-0.825-1.093-1.805-1.286-2.942 -2.572 2.015-4.898 3.43-6.977 4.244 -2.08 0.814-4.18 1.222-6.302 1.222 -2.958 0-5.359-0.804-7.202-2.411 -1.844-1.608-2.765-3.494-2.765-5.659 0-1.307 0.337-2.551 1.014-3.73 0.676-1.178 1.706-2.218 3.09-3.119 1.384-0.9 3.557-1.693 6.518-2.379C297.956 150.083 302.065 149.462 307.324 148.904zM307.307 151.702c-4.976 0.729-8.053 1.233-9.233 1.511 -2.338 0.536-4.011 1.125-5.019 1.769 -1.008 0.643-1.727 1.334-2.156 2.074 -0.429 0.739-0.643 1.526-0.643 2.362s0.241 1.646 0.724 2.428c0.482 0.783 1.164 1.398 2.043 1.849 0.879 0.45 1.812 0.675 2.799 0.675 1.394 0 2.97-0.332 4.729-0.997 1.759-0.664 4.011-1.961 6.757-3.89L307.307 151.702zM322.055 141.091v-2.668c1.608 0 3.033-0.201 4.276-0.604 1.243-0.402 2.604-1.102 4.083-2.097h2.54v5.369c2.679-2.122 4.908-3.547 6.688-4.276 1.779-0.729 3.558-1.093 5.337-1.093 3.666 0 6.79 1.436 9.373 4.308 2.583 2.873 3.875 6.613 3.875 11.221 0 5.102-1.469 9.281-4.405 12.54 -2.68 3.001-6.131 4.501-10.353 4.501 -2.101 0-4.073-0.396-5.916-1.189 -1.33-0.557-2.862-1.554-4.598-2.99v10.578c0 1.586 0.042 2.519 0.128 2.797 0.107 0.407 0.321 0.75 0.643 1.029 0.321 0.278 0.729 0.46 1.222 0.546 0.364 0.064 1.586 0.097 3.666 0.097v2.701h-16.559v-2.701h1.447c1.479 0 2.438-0.113 2.878-0.338 0.439-0.225 0.766-0.574 0.98-1.045 0.128-0.365 0.193-1.479 0.193-3.344v-33.342H322.055zM332.955 144.403v11.06c0 1.458 0.085 2.54 0.256 3.248 0.257 1.093 0.754 2.079 1.493 2.958 0.738 0.879 1.744 1.629 3.017 2.25 1.273 0.622 2.605 0.933 3.997 0.933 2.782 0 5.194-1.05 7.238-3.151 2.043-2.101 3.065-5.284 3.065-9.549 0-3.987-0.846-7.068-2.536-9.244 -1.69-2.175-3.691-3.264-6.002-3.264 -1.498 0-3.125 0.397-4.879 1.19C336.849 141.627 334.966 142.817 332.955 144.403zM371.697 125.562h2.283v10.932h9.549v3.215h-9.549v19.388c0 1.651 0.145 2.83 0.434 3.537 0.29 0.708 0.782 1.286 1.479 1.736 0.696 0.45 1.474 0.675 2.331 0.675 2.036 0 4.286-0.911 6.752-2.733v3.119c-2.813 1.908-5.659 2.861-8.537 2.861 -1.633 0-3.109-0.365-4.43-1.093 -1.321-0.729-2.223-1.586-2.706-2.572s-0.725-2.701-0.725-5.145v-19.773h-5.627v-2.701c1.808-0.407 3.265-1.04 4.373-1.897 1.107-0.857 2.006-1.972 2.694-3.344C370.707 130.396 371.267 128.327 371.697 125.562zM387.967 141.091v-2.668c1.779-0.211 3.274-0.508 4.485-0.889s2.588-0.985 4.132-1.812h2.347v25.786c0 0.9 0.129 1.575 0.386 2.025s0.616 0.777 1.077 0.98c0.461 0.204 1.302 0.306 2.524 0.306h1.511v2.701h-16.462v-2.701h1.318c1.436 0 2.4-0.129 2.894-0.386 0.493-0.257 0.841-0.622 1.045-1.093 0.203-0.471 0.306-1.576 0.306-3.312v-18.938H387.967zM396.134 121.222c1.028 0 1.907 0.359 2.636 1.077s1.094 1.591 1.094 2.62 -0.365 1.908-1.094 2.637 -1.607 1.093-2.636 1.093c-1.029 0-1.908-0.364-2.637-1.093 -0.729-0.729-1.094-1.608-1.094-2.637s0.364-1.902 1.094-2.62C394.226 121.581 395.104 121.222 396.134 121.222zM429.732 136.494h2.256l2.889 9.839 -2.895 0.964c-1.157-2.637-2.781-4.71-4.871-6.222 -2.09-1.511-4.206-2.267-6.35-2.267 -1.65 0-2.99 0.402-4.019 1.206 -1.029 0.804-1.544 1.731-1.544 2.781 0 0.986 0.375 1.833 1.126 2.54 0.728 0.729 2.368 1.555 4.919 2.476l6.27 2.218c3.537 1.265 5.948 2.615 7.234 4.051 1.265 1.458 1.896 3.108 1.896 4.951 0 1.565-0.472 3.071-1.414 4.518 -0.943 1.447-2.311 2.599-4.1 3.456 -1.79 0.857-3.842 1.286-6.157 1.286 -3.601 0-6.688-1.03-9.26-3.091l-0.675 2.32h-2.29l-4.012-10.514 2.894-1.158c1.953 3.087 3.8 5.273 5.539 6.559 2.426 1.822 5.045 2.733 7.857 2.733 1.868 0 3.402-0.498 4.605-1.495 1.202-0.997 1.804-2.106 1.804-3.328 0-1.007-0.376-1.929-1.126-2.765 -0.771-0.814-2.25-1.607-4.437-2.379l-7.428-2.701c-3.193-1.157-5.412-2.422-6.655-3.794 -1.243-1.371-1.864-2.947-1.864-4.726 0-2.165 1.013-4.078 3.038-5.739 2.025-1.661 4.603-2.492 7.732-2.492 1.629 0 3.087 0.209 4.373 0.628s2.551 1.112 3.794 2.079L429.732 136.494zM450.695 125.562h2.283v10.932h9.549v3.215h-9.549v19.388c0 1.651 0.145 2.83 0.434 3.537 0.29 0.708 0.782 1.286 1.479 1.736 0.696 0.45 1.474 0.675 2.331 0.675 2.036 0 4.286-0.911 6.752-2.733v3.119c-2.813 1.908-5.659 2.861-8.537 2.861 -1.633 0-3.109-0.365-4.43-1.093 -1.321-0.729-2.223-1.586-2.706-2.572s-0.725-2.701-0.725-5.145v-19.773h-5.627v-2.701c1.807-0.407 3.265-1.04 4.373-1.897 1.107-0.857 2.006-1.972 2.694-3.344C449.705 130.396 450.265 128.327 450.695 125.562zM524.748 122.668h2.314l4.077 14.951 -2.99 0.836c-1.607-3.451-2.83-5.766-3.666-6.945 -1.371-1.908-3.081-3.419-5.128-4.534 -2.047-1.114-4.303-1.672-6.768-1.672 -2.894 0-5.558 0.778-7.99 2.333 -2.433 1.556-4.404 3.835-5.916 6.838 -1.511 3.003-2.267 6.382-2.267 10.137 0 3.861 0.767 7.304 2.299 10.329s3.606 5.353 6.222 6.982c2.614 1.631 5.434 2.446 8.456 2.446 2.851 0 5.766-0.817 8.745-2.452s5.562-3.925 7.749-6.872l2.572 1.769c-1.33 1.972-2.766 3.644-4.309 5.016 -2.443 2.208-4.983 3.837-7.62 4.887 -2.637 1.05-5.53 1.575-8.682 1.575 -6.966 0-12.625-2.583-16.976-7.749 -3.602-4.287-5.401-9.388-5.401-15.304 0-4.351 0.996-8.29 2.989-11.816 1.994-3.526 4.743-6.329 8.247-8.408 3.505-2.079 7.283-3.119 11.334-3.119 2.165 0 4.174 0.295 6.028 0.884 1.854 0.59 3.734 1.539 5.643 2.846L524.748 122.668zM536.991 125.819v-2.765c2.079-0.278 3.698-0.605 4.855-0.98s2.368-0.949 3.633-1.72h2.508v21.252c2.426-2.036 4.722-3.526 6.891-4.469 2.168-0.943 4.239-1.415 6.214-1.415 2.876 0 5.248 0.857 7.115 2.572 1.846 1.715 2.77 3.805 2.77 6.27v15.787c0 1.565 0.123 2.588 0.369 3.07 0.246 0.482 0.659 0.836 1.238 1.061s1.875 0.338 3.891 0.338v2.701h-16.623v-2.701h1.222c1.564 0 2.594-0.123 3.087-0.37s0.852-0.654 1.077-1.222c0.225-0.567 0.338-1.741 0.338-3.521v-10.964c0-2.422-0.086-3.998-0.258-4.726 -0.321-1.243-0.986-2.24-1.993-2.99 -1.008-0.75-2.294-1.125-3.858-1.125 -1.758 0-3.596 0.434-5.514 1.302 -1.919 0.868-3.907 2.17-5.965 3.906v16.108c0 1.201 0.107 2.004 0.322 2.411 0.214 0.408 0.567 0.708 1.061 0.9s1.479 0.29 2.958 0.29h1.318v2.701h-16.655v-2.701h0.997c1.564 0 2.701-0.193 3.408-0.579 0.386-0.193 0.664-0.568 0.836-1.125 0.171-0.557 0.257-2.101 0.257-4.63v-32.667H536.991zM578.725 136.494l12.187-0.482v20.706c0 1.822 0.251 3.269 0.755 4.341s1.275 1.902 2.315 2.492c1.039 0.59 2.256 0.884 3.649 0.884 1.714 0 3.659-0.461 5.835-1.383 2.176-0.921 4.346-2.293 6.511-4.115v-14.983c0-1.586-0.118-2.625-0.354-3.119 -0.236-0.493-0.654-0.889-1.254-1.19 -0.601-0.3-1.543-0.45-2.829-0.45h-2.348v-2.701l12.187-0.482v23.986c0 1.543 0.128 2.61 0.386 3.199 0.257 0.589 0.637 1.007 1.141 1.254s1.517 0.37 3.039 0.37h0.996v2.701l-10.674 0.546v-5.948c-2.938 2.336-5.498 3.95-7.685 4.839s-4.405 1.334-6.655 1.334c-1.672 0-3.125-0.225-4.356-0.675 -1.233-0.45-2.315-1.125-3.248-2.026s-1.646-1.982-2.138-3.247c-0.493-1.265-0.739-2.615-0.739-4.051v-14.629c0-1.307-0.118-2.224-0.354-2.749 -0.235-0.525-0.627-0.943-1.173-1.254 -0.547-0.311-1.292-0.466-2.235-0.466h-2.958V136.494zM625.216 141.091v-2.668c1.561-0.126 2.949-0.386 4.168-0.778 1.218-0.392 2.606-1.033 4.167-1.922h2.404v6.077c1.521-1.865 3.29-3.344 5.305-4.437s3.826-1.64 5.434-1.64c1.587 0 2.841 0.375 3.763 1.125 0.921 0.75 1.382 1.661 1.382 2.733 0 0.771-0.305 1.452-0.916 2.042 -0.611 0.59-1.346 0.884-2.202 0.884 -0.386 0-0.719-0.053-0.997-0.161 -0.278-0.107-0.687-0.342-1.222-0.707 -1.179-0.772-2.165-1.158-2.958-1.158 -1.072 0-2.251 0.45-3.537 1.351 -1.629 1.157-2.904 2.294-3.826 3.408v14.822c0 1.286 0.069 2.16 0.209 2.621s0.37 0.857 0.691 1.189c0.322 0.333 0.718 0.574 1.189 0.724 0.472 0.15 1.297 0.225 2.477 0.225h1.061v2.701h-16.622v-2.701h1.382c1.308 0 2.165-0.118 2.572-0.354 0.558-0.321 0.97-0.766 1.238-1.334 0.268-0.568 0.401-1.592 0.401-3.071v-18.97H625.216zM683.091 158.55l2.058 1.672c-4.03 5.38-8.863 8.07-14.501 8.07 -4.394 0-8.102-1.564-11.124-4.694s-4.533-7.02-4.533-11.671c0-3.108 0.701-5.9 2.105-8.375 1.403-2.476 3.354-4.399 5.852-5.771 2.497-1.372 5.364-2.058 8.601-2.058 3.687 0 6.763 0.906 9.228 2.717 2.465 1.812 3.698 3.639 3.698 5.482 0 0.986-0.29 1.747-0.868 2.283 -0.579 0.536-1.233 0.804-1.962 0.804 -0.386 0-0.761-0.096-1.125-0.289s-0.739-0.503-1.125-0.933c-0.172-0.193-0.482-0.792-0.933-1.8 -0.579-1.243-1.029-2.079-1.351-2.508 -0.664-0.857-1.484-1.532-2.46-2.026 -0.976-0.493-2.062-0.739-3.263-0.739 -1.822 0-3.511 0.504-5.064 1.511s-2.786 2.492-3.697 4.453c-0.911 1.961-1.366 4.304-1.366 7.025 0 4.223 1.125 7.577 3.376 10.063 1.95 2.144 4.276 3.215 6.977 3.215 1.243 0 2.503-0.209 3.778-0.627 1.274-0.418 2.48-1.034 3.617-1.849C679.844 161.926 681.204 160.608 683.091 158.55zM688.909 125.819v-2.765c2.079-0.278 3.698-0.605 4.855-0.98s2.368-0.949 3.633-1.72h2.508v21.252c2.426-2.036 4.722-3.526 6.891-4.469 2.168-0.943 4.239-1.415 6.214-1.415 2.876 0 5.248 0.857 7.115 2.572 1.846 1.715 2.77 3.805 2.77 6.27v15.787c0 1.565 0.123 2.588 0.369 3.07 0.246 0.482 0.659 0.836 1.238 1.061s1.875 0.338 3.891 0.338v2.701H711.77v-2.701h1.222c1.564 0 2.594-0.123 3.087-0.37s0.852-0.654 1.077-1.222c0.225-0.567 0.338-1.741 0.338-3.521v-10.964c0-2.422-0.086-3.998-0.258-4.726 -0.321-1.243-0.986-2.24-1.993-2.99 -1.008-0.75-2.294-1.125-3.858-1.125 -1.758 0-3.596 0.434-5.514 1.302 -1.919 0.868-3.907 2.17-5.965 3.906v16.108c0 1.201 0.107 2.004 0.322 2.411 0.214 0.408 0.567 0.708 1.061 0.9s1.479 0.29 2.958 0.29h1.318v2.701h-16.655v-2.701h0.997c1.564 0 2.701-0.193 3.408-0.579 0.386-0.193 0.664-0.568 0.836-1.125 0.171-0.557 0.257-2.101 0.257-4.63v-32.667H688.909z"/><path id="Northside" d="M236.039 44.496h19.16l25.003 36.737V44.496h19.341v66.402h-19.341l-24.867-36.459v36.459h-19.295V44.496zM309.688 86.983c0-7.338 2.476-13.385 7.428-18.141 4.952-4.756 11.641-7.134 20.066-7.134 9.632 0 16.91 2.793 21.832 8.379 3.956 4.5 5.934 10.041 5.934 16.624 0 7.398-2.454 13.46-7.36 18.186 -4.907 4.726-11.694 7.088-20.36 7.088 -7.73 0-13.981-1.962-18.752-5.888C312.617 101.236 309.688 94.864 309.688 86.983zM328.169 86.938c0 4.288 0.868 7.458 2.604 9.512 1.736 2.054 3.918 3.08 6.545 3.08 2.657 0 4.839-1.011 6.545-3.035 1.706-2.023 2.56-5.269 2.56-9.738 0-4.167-0.861-7.27-2.582-9.308 -1.721-2.039-3.85-3.058-6.387-3.058 -2.688 0-4.907 1.035-6.658 3.103C329.044 79.562 328.169 82.71 328.169 86.938zM374.008 62.795h17.257v7.881c1.66-3.412 3.375-5.759 5.141-7.043 1.767-1.283 3.948-1.925 6.546-1.925 2.718 0 5.691 0.846 8.923 2.537l-5.707 13.135c-2.175-0.906-3.896-1.358-5.164-1.358 -2.416 0-4.288 0.996-5.616 2.989 -1.902 2.808-2.854 8.062-2.854 15.763v16.125h-18.525V62.795zM441.859 44.496v18.299h10.146v13.498h-10.146v17.042c0 2.049 0.195 3.405 0.589 4.068 0.604 1.025 1.66 1.537 3.17 1.537 1.359 0 3.262-0.391 5.707-1.175l1.359 12.726c-4.56 0.997-8.817 1.495-12.773 1.495 -4.59 0-7.972-0.588-10.146-1.764 -2.175-1.176-3.782-2.962-4.824-5.36s-1.562-6.281-1.562-11.649V76.293h-6.795V62.795h6.795v-8.833L441.859 44.496zM460.792 44.496h18.436v24.459c2.506-2.597 4.997-4.454 7.474-5.571 2.476-1.117 5.404-1.676 8.787-1.676 5.012 0 8.96 1.525 11.845 4.575 2.883 3.05 4.325 7.731 4.325 14.042v30.574h-18.525V84.446c0-3.02-0.56-5.156-1.676-6.409 -1.118-1.253-2.688-1.88-4.711-1.88 -2.235 0-4.047 0.846-5.436 2.537 -1.39 1.691-2.083 4.726-2.083 9.104v23.101h-18.436V44.496zM519.403 97.537l18.3-1.721c0.754 2.174 1.812 3.729 3.171 4.665 1.358 0.937 3.17 1.404 5.435 1.404 2.477 0 4.395-0.527 5.753-1.583 1.057-0.784 1.585-1.763 1.585-2.939 0-1.326-0.694-2.352-2.083-3.076 -0.997-0.513-3.64-1.145-7.927-1.9 -6.402-1.115-10.849-2.148-13.34-3.099 -2.491-0.95-4.59-2.556-6.296-4.819 -1.706-2.262-2.559-4.842-2.559-7.738 0-3.167 0.921-5.897 2.763-8.19 1.842-2.292 4.378-4.004 7.609-5.135s7.564-1.697 13-1.697c5.736 0 9.972 0.438 12.705 1.313 2.732 0.876 5.012 2.235 6.84 4.077 1.826 1.842 3.344 4.333 4.552 7.474l-17.483 1.721c-0.453-1.54-1.208-2.672-2.265-3.397 -1.45-0.966-3.201-1.45-5.255-1.45 -2.083 0-3.601 0.37-4.552 1.108s-1.427 1.636-1.427 2.691c0 1.176 0.604 2.065 1.812 2.668 1.207 0.603 3.835 1.146 7.882 1.629 6.129 0.693 10.689 1.659 13.679 2.896 2.989 1.237 5.276 3.001 6.862 5.293 1.585 2.293 2.378 4.812 2.378 7.557 0 2.776-0.838 5.476-2.514 8.1s-4.319 4.713-7.927 6.267c-3.609 1.553-8.523 2.33-14.744 2.33 -8.787 0-15.045-1.252-18.774-3.759C522.854 105.72 520.46 102.157 519.403 97.537zM580.009 44.496h18.435v12.546h-18.435V44.496zM580.009 62.795h18.435v48.104h-18.435V62.795zM660.86 44.496v66.402h-17.257v-7.111c-2.417 3.02-4.62 5.058-6.613 6.115 -2.658 1.389-5.617 2.083-8.878 2.083 -6.553 0-11.558-2.491-15.016-7.474s-5.186-11.036-5.186-18.163c0-7.972 1.909-14.071 5.729-18.299 3.819-4.227 8.674-6.341 14.562-6.341 2.868 0 5.473 0.483 7.813 1.45 2.34 0.966 4.416 2.416 6.228 4.348v-23.01H660.86zM642.38 86.711c0-3.774-0.8-6.59-2.4-8.448 -1.601-1.857-3.624-2.786-6.069-2.786 -2.145 0-3.94 0.891-5.391 2.672 -1.449 1.782-2.174 4.772-2.174 8.969 0 3.926 0.747 6.802 2.242 8.628 1.495 1.828 3.344 2.741 5.549 2.741 2.355 0 4.317-0.921 5.888-2.763C641.595 93.883 642.38 90.878 642.38 86.711zM725.496 91.421h-36.96c0.332 2.96 1.132 5.164 2.4 6.613 1.781 2.083 4.106 3.125 6.976 3.125 1.812 0 3.533-0.453 5.163-1.359 0.997-0.573 2.068-1.585 3.216-3.035l18.164 1.676c-2.779 4.832-6.131 8.297-10.056 10.395 -3.926 2.099-9.558 3.148-16.896 3.148 -6.371 0-11.384-0.898-15.038-2.695 -3.653-1.796-6.681-4.65-9.081-8.561 -2.4-3.91-3.601-8.507-3.601-13.792 0-7.519 2.407-13.604 7.224-18.254 4.816-4.65 11.467-6.976 19.953-6.976 6.885 0 12.32 1.042 16.306 3.125 3.986 2.083 7.021 5.104 9.104 9.059 2.084 3.956 3.125 9.104 3.125 15.445V91.421zM706.744 82.589c-0.362-3.562-1.321-6.115-2.876-7.655 -1.556-1.54-3.601-2.31-6.138-2.31 -2.929 0-5.27 1.163-7.021 3.488 -1.117 1.45-1.827 3.609-2.129 6.477H706.744z"/></svg>
